<?xml version="1.0" standalone="no"?>
<!DOCTYPE svg PUBLIC "-//W3C//DTD SVG 20010904//EN"
 "http://www.w3.org/TR/2001/REC-SVG-20010904/DTD/svg10.dtd">
<svg version="1.0" xmlns="http://www.w3.org/2000/svg"
 width="1000.000000pt" height="1000.000000pt" viewBox="0 0 1000.000000 1000.000000"
 preserveAspectRatio="xMidYMid meet">
<metadata>
Created by potrace 1.14, written by Peter Selinger 2001-2017
</metadata>
<g transform="translate(0.000000,1000.000000) scale(0.100000,-0.100000)"
fill="#000000" stroke="none">
<path d="M1 5000 l-4 -5000 66 0 c43 0 67 4 70 13 4 9 6 9 6 0 1 -10 140 -13
661 -13 737 0 670 -7 684 72 7 39 17 42 56 15 28 -19 65 -22 76 -6 12 19 23
-12 17 -48 -5 -30 -3 -33 19 -33 22 0 26 5 31 41 6 44 9 50 29 53 7 1 18 4 23
7 6 4 24 9 40 13 17 4 39 9 50 12 16 4 17 3 5 -5 -8 -6 -10 -11 -4 -11 6 0 23
9 38 21 14 11 26 18 26 15 0 -3 20 1 45 8 25 8 45 12 45 9 0 -3 7 0 15 7 13
11 18 10 29 -6 13 -17 14 -17 9 9 -4 22 -2 27 15 27 11 0 33 7 48 15 16 8 37
15 47 15 10 0 26 7 34 16 10 10 26 13 42 10 14 -3 20 -3 13 0 -6 3 -9 10 -6
15 3 6 12 5 22 -3 9 -7 13 -8 9 -2 -4 7 4 14 21 19 15 3 56 20 92 37 36 18 70
32 75 33 6 1 19 5 30 9 11 4 24 6 29 6 5 -1 12 2 15 7 3 5 51 31 106 58 55 27
102 52 105 56 4 6 141 72 225 110 11 5 27 13 35 19 8 5 40 20 70 33 30 14 75
33 100 44 25 12 56 24 70 28 14 4 27 10 30 14 7 9 159 81 170 81 12 0 182 82
190 91 7 8 109 55 140 64 14 4 27 10 30 14 3 3 30 19 60 35 30 16 57 32 60 35
8 10 141 71 154 71 4 0 24 11 45 24 21 14 67 36 102 51 35 14 76 32 91 40 14
8 33 15 41 15 17 0 114 49 212 107 61 37 86 45 190 62 66 11 144 23 172 26 61
8 80 24 31 26 -40 2 -40 2 -111 -9 -31 -5 -57 -5 -57 0 0 4 9 8 20 8 11 0 20
5 20 10 0 6 6 10 13 10 6 0 66 27 132 61 66 33 140 67 165 76 25 8 59 21 75
29 58 25 140 54 158 54 9 0 25 4 35 9 9 5 34 17 55 26 20 9 35 20 32 25 -5 8
-118 -24 -214 -61 -31 -12 -90 -35 -131 -51 -100 -39 -99 -38 -220 -97 -58
-28 -111 -51 -118 -51 -7 0 -20 -4 -30 -10 -9 -5 -60 -26 -112 -46 -80 -31
-137 -61 -160 -84 -4 -4 -152 -78 -205 -102 -12 -5 -28 -10 -36 -11 -9 -2 -27
-10 -40 -18 -25 -16 -84 -44 -154 -73 -22 -9 -53 -24 -70 -33 -32 -17 -89 -45
-195 -97 -36 -17 -67 -33 -70 -36 -3 -3 -30 -16 -60 -30 -30 -14 -57 -28 -60
-32 -3 -4 -28 -17 -55 -29 -28 -12 -58 -28 -67 -37 -10 -8 -18 -11 -18 -6 0 5
-4 4 -8 -2 -9 -13 -75 -44 -94 -44 -7 0 -40 -13 -71 -30 -32 -16 -67 -30 -78
-30 -11 0 -18 -4 -15 -9 3 -5 -9 -14 -27 -21 -17 -7 -58 -26 -89 -42 -32 -15
-58 -25 -58 -21 0 4 -5 2 -12 -5 -7 -7 -20 -12 -30 -12 -10 0 -30 -8 -45 -17
-14 -10 -32 -18 -40 -19 -8 -1 -21 -8 -30 -15 -8 -7 -22 -14 -31 -15 -8 -2
-18 -7 -21 -12 -3 -5 -24 -15 -46 -23 -22 -8 -42 -16 -45 -19 -14 -15 -91 -42
-105 -36 -9 3 -14 2 -11 -3 5 -7 -27 -27 -47 -29 -4 -1 -19 -10 -34 -22 -14
-11 -31 -20 -38 -20 -21 0 -125 -51 -125 -61 0 -6 -4 -8 -8 -5 -4 2 -27 -4
-50 -14 -23 -11 -42 -16 -42 -12 0 4 -4 1 -9 -7 -5 -8 -18 -15 -28 -16 -10 -1
-35 -5 -55 -9 -21 -4 -41 -6 -44 -6 -4 1 -10 -3 -13 -9 -9 -14 -148 -71 -155
-63 -3 3 -6 0 -6 -7 0 -7 -4 -10 -9 -7 -10 7 -135 -29 -173 -50 -20 -11 -28
-12 -28 -3 0 9 -3 9 -14 0 -11 -10 -15 -8 -19 6 -4 14 -5 13 -6 -4 -1 -25 -12
-28 -42 -13 -13 7 -19 7 -19 0 0 -5 -18 -10 -40 -10 -22 0 -40 5 -40 11 0 5
-4 8 -9 4 -12 -7 -52 35 -45 47 3 4 -1 8 -8 8 -17 0 -61 77 -52 92 4 6 3 8 -3
5 -10 -6 -38 40 -35 56 1 4 -2 7 -8 7 -12 0 -14 26 -2 33 4 2 2 2 -5 1 -20 -5
-36 24 -31 57 4 28 1 33 -23 43 -20 7 -34 25 -49 58 -11 26 -25 48 -30 48 -10
0 -38 59 -45 92 -2 10 -13 27 -24 39 -10 11 -26 41 -34 65 -12 38 -12 47 -1
58 11 12 10 15 -5 19 -15 4 -20 16 -23 58 -2 30 0 57 5 60 5 4 3 11 -4 15 -16
10 -18 36 -4 46 6 5 5 8 -2 8 -9 0 -13 16 -13 44 0 49 -17 92 -73 183 -51 84
-166 346 -173 397 -4 23 -10 46 -14 51 -4 6 -29 93 -54 194 -53 209 -57 272
-24 340 22 45 178 211 198 211 6 0 23 12 37 26 15 15 46 35 69 46 24 10 46 23
49 28 3 6 18 10 33 10 22 0 24 2 12 11 -12 8 -10 9 10 7 17 -2 28 4 35 17 6
11 18 20 27 20 10 0 23 6 30 13 6 6 18 12 25 12 7 0 13 5 13 11 0 5 5 7 10 4
6 -3 10 -1 10 4 0 6 7 11 15 11 8 0 15 5 15 10 0 6 7 10 16 10 9 0 32 10 51
21 19 12 37 19 40 16 3 -4 20 5 38 18 17 14 37 25 43 25 9 0 80 33 167 78 17
9 32 16 35 15 3 -1 30 10 60 24 30 14 60 26 67 26 7 0 14 6 17 12 2 7 21 15
40 19 20 4 36 11 36 16 0 6 7 10 15 10 8 0 15 5 15 10 0 6 3 9 8 8 4 0 24 7
45 16 22 9 43 16 48 14 5 -2 -8 -26 -30 -55 -21 -29 -40 -50 -43 -48 -2 2 -14
-12 -27 -31 -14 -19 -39 -52 -58 -72 -18 -20 -33 -40 -33 -45 0 -4 -5 -5 -10
-2 -5 3 -10 0 -10 -7 0 -7 -10 -25 -23 -40 -46 -56 -117 -157 -117 -167 0 -6
-3 -11 -8 -11 -4 0 -13 -13 -20 -30 -12 -25 -116 -176 -132 -190 -3 -3 -17
-26 -30 -53 -14 -26 -28 -47 -32 -47 -4 0 -5 -6 -2 -13 6 -16 -20 -69 -29 -60
-4 3 -7 -6 -7 -20 0 -15 -5 -27 -10 -27 -6 0 -9 -6 -8 -12 2 -9 -9 -12 -35
-11 -56 4 -125 30 -169 64 -21 17 -38 27 -38 23 0 -4 -8 2 -17 12 -10 11 -30
25 -46 33 -15 8 -27 18 -27 23 0 4 -7 8 -15 8 -8 0 -12 6 -9 14 4 11 0 13 -15
9 -12 -3 -21 -1 -21 6 0 6 -6 11 -14 11 -7 0 -27 7 -42 15 -33 17 -99 21 -89
5 4 -6 41 -27 83 -48 42 -21 115 -65 160 -98 46 -32 98 -67 115 -76 92 -50
234 -63 369 -34 43 9 81 15 85 14 5 0 15 2 23 5 8 3 51 13 95 22 126 25 288
66 315 80 14 7 43 16 65 20 22 4 56 14 75 23 41 18 35 16 80 26 19 4 69 18
110 31 41 13 111 32 155 43 44 11 100 28 125 37 25 9 52 19 60 21 8 2 40 11
70 20 30 9 75 19 100 23 25 4 80 20 123 34 42 15 87 27 100 27 22 0 163 47
342 114 86 32 231 79 285 91 56 13 240 95 240 106 0 9 -33 0 -120 -33 -83 -31
-206 -71 -290 -93 -36 -9 -87 -26 -114 -36 -27 -10 -55 -19 -63 -19 -8 0 -27
-6 -41 -14 -53 -27 -105 -47 -109 -42 -3 3 -22 -3 -42 -13 -33 -17 -114 -38
-321 -86 -41 -10 -101 -28 -133 -41 -31 -12 -57 -21 -57 -18 0 3 -10 -1 -22
-7 -13 -7 -32 -14 -43 -15 -11 -2 -38 -8 -60 -14 -22 -6 -47 -13 -55 -14 -8
-2 -39 -10 -69 -19 -30 -10 -63 -17 -73 -17 -11 0 -43 -11 -71 -24 -29 -13
-69 -27 -89 -30 -20 -4 -50 -13 -65 -21 -15 -8 -36 -15 -46 -15 -9 0 -25 -4
-35 -10 -42 -23 -260 -70 -397 -85 -33 -4 -64 -10 -70 -15 -5 -4 -28 -10 -50
-13 -22 -2 -49 -7 -60 -10 -21 -5 -74 -10 -86 -8 -4 1 6 25 22 54 16 28 33 61
38 72 25 56 34 81 33 87 -1 3 5 12 13 18 8 7 15 19 15 26 0 8 4 14 9 14 5 0
12 8 15 18 3 9 21 33 39 52 18 19 48 64 66 100 38 72 85 144 114 175 11 11 29
36 42 55 13 19 45 58 72 85 27 28 57 64 68 80 33 53 252 257 297 277 24 11 88
38 143 59 95 38 102 43 140 96 22 31 49 66 60 78 38 39 121 140 136 165 9 14
31 40 48 59 18 19 51 66 74 105 23 39 47 77 54 84 7 8 18 23 25 35 19 36 192
239 235 277 138 120 158 134 223 160 74 29 324 30 456 1 115 -26 297 -89 428
-150 33 -16 90 -41 126 -56 118 -51 155 -72 410 -242 69 -46 145 -100 169
-121 71 -59 299 -292 348 -355 25 -31 49 -57 52 -57 9 0 303 -327 318 -353 7
-12 12 -26 13 -31 0 -10 -73 2 -80 13 -3 5 -25 11 -50 15 -24 4 -50 12 -56 17
-16 13 -204 28 -210 17 -3 -4 -2 -8 3 -8 48 -1 279 -42 281 -50 2 -5 12 -10
23 -10 11 0 49 -13 84 -30 35 -16 67 -30 71 -30 20 0 182 -120 254 -189 46
-44 91 -81 100 -81 15 0 -108 124 -169 170 -18 14 -47 37 -65 51 -17 14 -47
36 -66 49 -44 29 -107 96 -213 225 -45 54 -113 132 -152 173 -62 66 -69 77
-68 111 2 33 25 90 53 126 4 6 10 25 14 44 3 19 25 58 49 87 23 29 49 63 57
74 15 21 16 20 155 -30 287 -105 307 -111 378 -112 49 0 73 4 86 16 10 9 21
16 24 16 10 0 135 87 176 121 19 16 38 29 42 29 5 0 25 16 45 35 20 19 40 33
45 29 5 -3 9 -1 9 4 0 5 21 20 48 33 47 24 149 92 167 113 6 6 30 27 55 46 25
19 61 50 81 70 38 37 104 90 111 90 3 0 6 -912 7 -2175 0 -226 0 -257 2 -287
3 -64 -10 -201 -20 -211 -15 -15 -145 -20 -368 -15 -62 2 -113 1 -113 -2 0 -3
-26 -5 -58 -5 -72 0 -89 15 -127 114 -39 103 -33 199 20 301 24 47 52 140 69
230 17 88 11 150 -19 197 -33 52 -139 178 -187 222 -52 47 -65 45 -20 -4 198
-217 225 -278 191 -436 -11 -52 -21 -99 -22 -105 -2 -7 -8 -18 -14 -26 -17
-20 -64 -148 -68 -185 -2 -17 -6 -41 -9 -51 -12 -35 27 -161 95 -309 10 -24
19 -47 19 -52 0 -5 7 -22 15 -37 24 -46 29 -92 14 -137 -16 -53 -48 -116 -69
-137 -8 -9 -35 -40 -60 -69 -25 -29 -58 -67 -75 -85 -16 -18 -35 -40 -41 -51
-17 -31 -37 -8 -31 36 3 22 2 39 -2 39 -4 0 -8 20 -9 44 -1 23 -6 64 -11 90
-7 37 -6 46 6 46 23 0 77 -26 92 -43 15 -19 31 -22 31 -8 0 23 -195 145 -212
134 -5 -2 -8 0 -8 4 0 11 -38 28 -170 79 -138 53 -253 85 -465 130 -38 9 -88
20 -110 25 -46 12 -270 18 -286 8 -5 -3 8 -6 29 -7 22 -1 71 -7 108 -12 38 -6
121 -17 184 -25 66 -7 147 -25 190 -40 41 -14 90 -28 110 -31 19 -2 51 -11 70
-19 45 -18 168 -56 200 -62 14 -2 46 -17 73 -34 26 -16 51 -29 55 -29 5 0 18
-11 30 -23 19 -21 26 -51 46 -218 13 -107 27 -264 30 -349 6 -132 12 -261 21
-382 1 -16 2 -77 3 -138 2 -105 3 -110 23 -110 21 0 22 2 14 93 -4 50 -9 171
-10 268 -1 97 -5 181 -8 186 -4 6 -7 68 -8 137 -1 124 0 128 28 169 15 23 49
63 76 89 26 27 47 54 47 61 0 7 9 19 21 27 11 8 28 29 36 45 9 17 27 44 41 60
14 17 36 54 48 83 l24 52 253 -1 c139 0 260 -5 268 -9 12 -8 14 -89 14 -529 0
-307 4 -517 9 -514 5 4 6 2 3 -4 -6 -10 -11 -122 -9 -180 l2 -33 128 0 128 0
-2 277 c0 153 3 290 7 305 4 15 4 30 1 32 -10 6 -6 392 4 407 5 8 3 9 -6 4
-10 -6 -12 -4 -7 9 4 10 7 30 7 44 1 29 45 91 56 79 4 -4 8 -179 9 -390 1
-210 5 -383 9 -385 3 -2 12 -1 19 1 9 4 9 6 -1 6 -10 1 -10 6 -2 22 7 13 8 25
2 32 -11 14 -10 46 2 65 4 6 4 12 -1 12 -9 0 -8 239 1 248 9 9 7 24 -3 18 -9
-6 -7 71 3 81 3 3 1 12 -5 19 -7 9 -7 19 0 33 8 13 8 28 1 46 -5 14 -6 24 -2
21 5 -3 8 53 7 124 -1 71 2 134 6 142 7 11 213 13 1147 15 l1138 3 2 -28 c0
-15 3 -40 6 -57 3 -16 5 -91 5 -165 -1 -74 -1 -142 -1 -150 1 -8 1 -207 1
-443 l1 -427 105 0 105 0 0 5000 0 5001 -102 -3 -103 -3 -2 -1190 c-1 -654 -2
-1196 -2 -1202 -1 -7 -8 -13 -16 -13 -8 0 -15 -5 -15 -10 0 -7 -6 -7 -19 -1
-10 6 -20 8 -23 6 -4 -5 -229 -6 -907 -5 -232 0 -426 -2 -430 -4 -3 -2 -15 0
-25 3 -19 7 -30 34 -90 216 -25 75 -108 250 -132 276 -8 8 -14 18 -14 22 0 7
-91 143 -149 222 -109 147 -238 281 -380 393 -53 41 -89 78 -97 99 -14 32 -29
48 -18 18 8 -21 -35 -11 -60 14 -18 18 -19 33 -18 146 0 69 4 130 8 136 4 6 2
14 -4 18 -6 4 -7 25 -2 56 4 28 5 55 0 60 -4 6 -5 39 -3 75 5 74 5 64 3 192
-1 53 1 102 5 107 3 6 1 11 -5 11 -7 0 -8 6 -1 19 6 10 8 21 5 23 -2 3 -5 75
-5 161 l0 157 -133 0 -133 0 1 -340 c1 -187 4 -340 8 -340 4 0 4 -10 0 -22 -4
-13 -7 -63 -6 -111 0 -48 -2 -90 -6 -92 -4 -3 -23 6 -43 19 -48 33 -58 35
-182 37 -60 1 -119 6 -130 12 -11 5 -45 33 -75 62 -103 100 -301 162 -500 157
-63 -1 -126 -5 -140 -9 -14 -4 -135 -8 -270 -10 -186 -2 -294 -9 -449 -29
-113 -14 -208 -27 -212 -29 -3 -3 -28 -7 -55 -10 -27 -3 -60 -8 -74 -11 -14
-4 -60 -10 -102 -14 -42 -4 -82 -11 -89 -15 -8 -5 -10 -4 -5 3 4 7 4 12 -1 12
-4 0 -8 11 -8 24 0 13 3 22 8 19 12 -7 8 12 -5 26 -8 9 -8 11 -2 8 9 -5 10 3
4 28 -5 21 -4 35 3 38 6 2 6 11 -2 26 -9 16 -9 26 -2 35 6 7 9 15 6 18 -5 5
-6 126 -2 251 1 46 -2 77 -8 77 -7 0 -7 3 0 8 11 8 14 132 4 132 -4 0 -5 9 -2
20 3 13 0 20 -9 20 -21 0 -22 -9 -17 -286 1 -72 -1 -136 -5 -142 -3 -6 -2 -13
4 -17 7 -4 7 -12 0 -24 -5 -10 -6 -22 -2 -26 9 -8 12 -240 3 -252 -6 -9 -57
-33 -70 -33 -4 0 -7 174 -7 388 l1 387 -127 3 c-99 2 -128 0 -129 -10 -3 -68
-3 -628 1 -628 7 0 3 -126 -4 -155 -3 -13 -2 -34 3 -47 6 -16 5 -29 -3 -40
-12 -17 -115 -70 -209 -108 -31 -13 -66 -32 -76 -41 -10 -10 -45 -31 -77 -48
-33 -18 -72 -39 -89 -49 -16 -9 -36 -18 -42 -18 -39 -3 -44 -5 -38 -16 4 -7
-1 -4 -9 6 -12 15 -16 16 -16 5 -1 -10 -3 -9 -11 4 -6 10 -8 23 -5 30 2 7 5 3
5 -8 1 -17 3 -17 11 -5 5 8 10 10 10 4 0 -6 13 -9 31 -6 26 4 29 6 15 14 -9 5
-14 13 -11 19 3 5 -1 6 -10 2 -13 -5 -14 -7 -3 -14 9 -6 9 -9 1 -9 -18 0 -27
21 -13 30 7 4 10 12 6 18 -3 6 1 15 9 20 10 5 13 15 9 25 -3 9 -10 15 -15 12
-4 -3 -6 -12 -2 -20 3 -8 0 -15 -7 -15 -7 0 -10 -7 -6 -15 3 -8 1 -15 -4 -15
-6 0 -11 15 -12 33 -2 49 -3 55 -9 62 -10 10 3 55 14 48 6 -4 8 2 4 16 -4 18
-2 21 11 16 9 -4 28 -9 42 -11 16 -2 13 0 -8 6 -20 7 -30 15 -26 22 5 8 1 9
-10 5 -14 -5 -17 -3 -12 8 3 8 1 15 -3 15 -15 0 0 84 17 98 16 12 11 15 -23
13 -17 -2 -18 0 -5 9 13 9 13 11 0 20 -13 8 -13 10 2 10 9 0 19 -6 21 -12 4
-10 6 -10 6 0 1 7 -5 19 -12 27 -18 17 -22 132 -6 151 7 8 9 17 5 21 -3 3 -6
1 -6 -5 0 -7 -3 -12 -8 -12 -18 0 -6 66 15 83 13 10 23 26 23 35 0 12 -4 10
-13 -7 -17 -34 -33 -36 -32 -4 1 38 15 64 29 56 6 -3 5 0 -2 8 -11 12 -14 12
-22 -1 -8 -12 -10 -11 -7 5 1 11 6 25 10 32 4 6 3 14 -2 17 -8 5 -8 27 -1 46
3 6 2 9 -4 46 -3 15 0 34 6 41 8 10 8 17 0 25 -14 14 -16 52 -4 44 5 -3 9 1 9
9 0 8 -4 12 -9 9 -4 -3 -8 5 -8 18 0 19 2 20 11 8 9 -12 10 -12 5 3 -3 11 -9
30 -12 43 l-6 24 -1927 0 -1926 0 -4 -5000z m6406 4334 c95 -21 148 -40 199
-70 46 -27 124 -108 124 -129 0 -17 43 -35 61 -24 9 4 35 10 60 11 24 2 49 7
55 11 15 9 64 5 64 -5 0 -4 9 -8 20 -8 33 0 100 -38 165 -94 95 -81 120 -118
53 -79 -60 34 -194 77 -202 64 -3 -4 10 -13 27 -20 135 -58 401 -197 416 -218
3 -4 38 -29 76 -56 39 -26 85 -61 104 -77 18 -16 49 -42 68 -57 40 -32 36 -27
100 -108 26 -33 53 -66 61 -74 7 -7 41 -50 74 -95 34 -44 68 -87 75 -94 8 -8
21 -28 30 -45 9 -18 28 -50 43 -72 72 -106 190 -372 215 -485 2 -8 8 -28 15
-44 10 -27 24 -98 65 -321 8 -44 17 -96 19 -116 3 -20 8 -42 11 -50 35 -93 44
-758 11 -869 -9 -30 -19 -75 -22 -100 -3 -25 -10 -53 -15 -62 -5 -9 -9 -34 -9
-55 0 -22 -12 -77 -26 -124 -14 -46 -31 -102 -37 -125 -7 -22 -19 -51 -28 -64
-15 -22 -15 -19 -8 51 4 41 10 146 13 234 4 88 11 185 16 215 21 128 32 348
26 523 -4 100 -9 231 -11 290 -2 59 -7 112 -10 116 -3 5 -12 62 -20 128 -27
213 -59 342 -80 322 -3 -4 4 -62 15 -130 20 -123 29 -186 34 -265 2 -23 6 -46
9 -50 26 -44 29 -794 3 -794 -4 0 -6 9 -3 20 3 11 2 20 -3 20 -4 0 -11 33 -15
73 -6 65 -39 198 -67 270 -11 30 -43 39 -34 10 13 -50 46 -207 56 -273 6 -41
15 -97 20 -125 14 -75 11 -229 -6 -330 -8 -49 -33 -144 -55 -210 -39 -115 -48
-139 -88 -230 -10 -22 -24 -55 -31 -72 -7 -18 -16 -33 -20 -33 -3 0 -13 -12
-21 -27 -7 -16 -21 -39 -30 -53 -9 -14 -30 -47 -47 -75 -17 -27 -35 -55 -39
-60 -40 -52 -63 -85 -63 -93 0 -4 -11 -19 -25 -32 -14 -13 -25 -29 -25 -36 0
-7 -8 -15 -18 -18 -10 -4 -29 -16 -41 -27 -32 -30 -36 -17 -7 26 14 20 28 46
32 58 4 12 10 24 13 27 3 3 19 30 34 60 16 30 32 62 37 70 5 8 16 29 24 45 8
17 27 54 42 82 14 29 27 64 28 78 0 14 7 25 14 25 6 0 12 5 12 10 0 6 -6 10
-12 10 -9 0 -10 3 -2 8 6 4 16 16 21 27 16 31 44 146 37 156 -3 5 -1 9 4 9 11
0 26 45 25 73 0 9 3 17 8 17 4 0 7 9 6 20 -1 12 -7 18 -14 16 -10 -4 -10 -1
-1 14 9 14 14 16 20 7 4 -7 8 11 9 38 0 28 2 57 4 65 2 8 10 56 19 105 8 50
19 108 25 130 6 22 13 92 17 156 6 100 5 117 -9 122 -13 5 -17 -5 -21 -51 -25
-241 -87 -509 -150 -647 -8 -16 -28 -66 -45 -110 -17 -44 -49 -116 -71 -160
l-40 -80 6 85 c3 47 9 101 14 121 7 37 4 223 -5 247 -3 8 -11 12 -18 10 -9 -4
-12 -45 -14 -154 -2 -235 -37 -399 -102 -473 -12 -13 -21 -30 -21 -37 0 -7
-29 -44 -65 -81 -36 -37 -65 -63 -65 -58 0 6 13 35 29 65 37 72 96 276 108
375 2 22 8 64 12 93 11 73 4 262 -15 392 -6 43 -12 134 -13 210 -1 27 -3 31
-11 20 -8 -13 -10 -13 -10 2 0 9 4 18 9 20 10 3 14 22 12 51 0 10 -5 16 -9 13
-7 -4 -62 140 -68 174 0 3 -5 23 -11 45 -5 22 -16 65 -23 95 -7 30 -17 66 -23
80 -6 14 -11 27 -12 30 0 3 -11 37 -23 76 -27 89 -58 254 -67 359 -4 44 -9 89
-12 100 -2 11 -9 49 -15 85 -6 36 -19 97 -30 135 -43 154 -80 146 -41 -9 13
-50 28 -120 33 -156 19 -125 30 -213 26 -217 -1 -2 -17 25 -34 59 -17 35 -40
68 -51 75 -18 11 -19 10 -10 -21 5 -19 20 -55 34 -80 14 -26 25 -52 25 -57 0
-6 11 -34 24 -62 32 -71 34 -79 41 -187 4 -52 8 -97 9 -100 0 -3 -3 -7 -8 -10
-6 -3 -14 11 -19 30 -10 42 -64 178 -108 275 -54 120 -60 153 -74 425 -11 226
-26 330 -46 330 -8 0 -7 -68 6 -325 5 -86 4 -136 -2 -130 -5 6 -24 46 -43 90
-18 44 -50 112 -70 150 -21 39 -55 104 -77 145 l-39 75 18 50 c10 28 22 59 27
70 51 116 64 169 39 159 -7 -2 -21 -21 -30 -42 -25 -54 -88 -229 -88 -244 -1
-7 -9 -31 -20 -53 -11 -22 -19 -43 -20 -46 0 -4 -8 -24 -17 -45 -9 -22 -17
-41 -18 -44 -4 -12 -20 -49 -46 -108 -16 -35 -29 -65 -29 -67 0 -8 -84 -141
-92 -146 -5 -3 -9 -10 -9 -15 1 -5 -12 -30 -29 -55 -16 -25 -33 -55 -36 -65
-4 -10 -19 -37 -34 -59 -14 -22 -34 -57 -45 -77 -11 -21 -22 -38 -26 -38 -3 0
-14 -18 -24 -41 -10 -22 -33 -56 -51 -76 -18 -19 -38 -48 -44 -64 -7 -16 -17
-29 -22 -29 -5 0 -7 -4 -4 -9 3 -5 -1 -11 -9 -15 -8 -3 -15 -2 -15 2 0 12 30
114 40 137 5 11 14 38 20 60 6 22 13 46 15 53 3 7 4 13 3 15 -1 1 4 12 10 23
6 12 14 40 17 62 8 66 29 114 76 176 64 86 80 107 123 172 21 33 51 73 66 90
47 54 100 140 100 163 0 35 -28 24 -51 -20 -11 -23 -29 -51 -40 -62 -10 -12
-19 -27 -19 -34 0 -7 -9 -17 -20 -23 -11 -6 -32 -32 -47 -58 -46 -80 -118
-167 -121 -148 -2 10 1 30 6 44 6 15 18 61 27 102 14 66 26 115 30 130 3 13
16 88 19 115 2 17 0 39 -4 50 -6 16 -10 12 -20 -25 -7 -25 -16 -61 -21 -80 -4
-19 -21 -93 -38 -165 -18 -71 -33 -139 -35 -150 -13 -79 -45 -147 -100 -217
-12 -14 -32 -41 -46 -59 -39 -52 -220 -246 -412 -441 -144 -147 -188 -195
-188 -208 0 -18 58 18 82 50 12 17 27 30 33 30 7 0 26 16 44 35 17 19 36 35
42 35 6 0 8 4 5 8 -3 5 6 19 20 33 14 13 44 43 66 67 23 24 50 42 62 42 22 -1
184 -54 194 -65 3 -3 1 -23 -5 -45 -13 -50 3 -54 36 -9 21 29 27 31 65 26 22
-4 64 -12 91 -19 58 -15 213 -14 228 1 12 12 3 14 -142 36 -130 19 -157 31
-154 69 1 15 16 43 32 62 17 19 31 39 31 44 0 4 18 28 40 51 22 24 40 49 40
56 0 7 5 13 11 13 5 0 8 4 4 9 -3 5 6 22 21 38 23 24 48 71 44 81 -1 2 7 11
18 20 19 18 62 100 62 120 0 7 6 15 14 18 8 3 17 15 20 27 3 13 14 31 24 42
20 22 22 27 22 51 0 9 5 12 12 8 6 -4 8 -3 4 4 -3 6 -2 13 3 16 14 9 62 97 48
90 -7 -4 -3 4 9 17 24 29 44 73 44 99 0 11 5 20 11 20 5 0 8 4 5 8 -3 5 2 21
10 36 7 16 14 35 14 42 0 25 17 15 34 -21 9 -19 21 -35 26 -35 5 0 23 -30 41
-67 78 -167 89 -191 89 -198 0 -4 16 -44 36 -88 l37 -80 -7 -151 c-6 -137 -32
-371 -42 -388 -2 -4 0 -9 6 -13 21 -13 42 103 54 300 5 83 15 135 26 135 5 0
16 -21 25 -47 19 -52 25 -69 49 -123 63 -143 134 -386 118 -402 -13 -13 -117
-27 -172 -22 -38 2 -49 -1 -72 -23 -39 -38 -35 -46 20 -39 26 4 67 9 92 12 25
2 67 9 93 14 27 6 52 8 57 5 5 -3 10 -1 12 4 1 5 25 11 52 13 l49 3 12 -50
c50 -209 86 -427 74 -446 -4 -7 -22 -3 -50 12 -133 67 -294 63 -428 -13 -68
-38 -91 -57 -91 -75 0 -11 4 -11 21 -3 28 15 33 8 21 -32 -36 -113 -43 -258
-18 -342 8 -26 12 -54 10 -60 -18 -48 212 -104 312 -77 45 12 91 51 60 51 -9
0 -33 -7 -53 -15 -19 -8 -44 -15 -54 -15 -22 0 -25 25 -5 37 22 12 67 119 73
175 6 47 5 48 -25 59 -56 19 -49 51 12 53 l31 1 -1 76 c-1 42 -6 92 -13 110
-7 20 -8 36 -2 42 13 13 104 -19 126 -43 10 -11 26 -20 36 -20 10 0 28 -10 39
-22 21 -22 21 -29 15 -193 -5 -140 -12 -192 -37 -295 -54 -223 -111 -372 -162
-423 -13 -13 -27 -34 -31 -47 -7 -22 -4 -21 44 13 28 20 55 37 59 37 5 0 19
11 32 25 12 13 27 22 31 19 9 -5 1 -35 -12 -44 -4 -3 -13 -30 -22 -60 -14 -53
-49 -145 -105 -275 -20 -47 -111 -185 -142 -215 -3 -3 -18 -22 -33 -43 -16
-20 -38 -48 -50 -61 -12 -13 -33 -37 -47 -53 -109 -127 -240 -246 -370 -334
-41 -29 -86 -61 -100 -74 -31 -26 -132 -92 -157 -102 -10 -4 -53 -36 -96 -71
-43 -35 -91 -68 -107 -72 -66 -19 -185 9 -450 105 -61 22 -389 186 -470 235
-36 22 -74 44 -85 49 -12 5 -67 44 -125 87 -57 44 -115 88 -129 98 -14 11 -44
36 -66 56 -43 41 -83 65 -92 56 -3 -3 34 -44 83 -91 109 -105 110 -106 159
-135 22 -13 42 -27 45 -30 13 -14 179 -120 189 -120 6 0 11 -4 11 -8 0 -4 12
-13 28 -19 77 -33 247 -133 250 -148 2 -9 -7 -30 -20 -48 -31 -42 -64 -113
-73 -156 -8 -37 -61 -131 -74 -131 -5 0 -37 32 -72 71 -69 77 -200 206 -264
260 -22 19 -49 43 -60 54 -11 11 -30 27 -41 35 -12 8 -54 39 -93 69 -39 30
-78 56 -85 57 -8 1 -34 15 -58 32 -59 40 -144 82 -152 75 -3 -4 -6 -1 -6 5 0
7 -6 12 -14 12 -8 0 -16 3 -18 8 -1 4 -19 15 -38 24 -19 10 -42 22 -50 26 -33
19 -59 31 -126 58 -97 38 -117 53 -109 78 7 24 24 84 29 106 2 9 16 51 30 95
14 44 30 94 35 110 5 17 13 48 16 70 3 22 10 56 15 75 5 19 14 71 21 114 12
80 12 80 25 45 17 -48 112 -228 140 -266 13 -17 24 -34 24 -38 0 -6 53 -76 77
-102 6 -7 16 -13 22 -13 5 0 -10 29 -34 65 -47 70 -213 396 -219 432 -12 59
-50 88 -163 123 -40 13 -73 27 -73 31 0 5 -6 9 -13 9 -23 0 -146 109 -185 163
-59 82 -134 227 -168 327 -10 26 -18 94 -21 160 -5 114 -5 116 27 185 36 78
77 138 89 130 5 -2 9 -48 9 -101 1 -87 8 -125 33 -191 9 -23 34 -33 26 -10 -2
6 -1 22 4 34 4 12 9 49 10 82 1 34 6 61 11 61 4 0 7 3 6 8 -3 13 15 47 35 65
48 42 111 5 123 -73 4 -25 4 -42 0 -39 -8 8 -80 -61 -89 -85 -4 -9 -10 -15
-15 -12 -4 2 -9 -4 -9 -15 -1 -10 0 -19 2 -19 16 0 65 30 87 53 l27 28 15 -29
c8 -16 16 -46 18 -66 1 -20 5 -36 9 -36 16 0 20 -96 5 -137 -8 -23 -12 -43 -8
-45 8 -4 50 -99 64 -146 10 -34 30 -39 36 -8 2 10 -8 42 -22 71 -36 77 -42
105 -22 105 9 0 16 -6 16 -13 0 -22 149 -315 203 -399 27 -43 52 -76 57 -73 4
2 4 24 -1 47 -11 54 -39 257 -39 281 0 29 15 19 34 -23 10 -22 23 -46 29 -53
13 -14 18 -22 63 -107 24 -46 147 -225 184 -267 6 -7 9 -13 7 -13 -3 0 45 -51
105 -112 61 -62 112 -108 115 -102 2 6 -12 51 -32 100 -41 102 -45 118 -52
235 -6 107 34 326 99 539 11 36 29 85 41 110 30 63 126 210 137 210 11 0 17
-21 29 -100 9 -55 8 -64 -10 -66 -5 -1 -12 -2 -15 -3 -8 -1 58 -54 100 -80 17
-11 67 -31 110 -46 65 -20 100 -25 184 -26 61 0 109 4 115 10 8 8 -9 11 -56
11 -38 0 -67 4 -67 10 0 5 15 30 34 54 39 51 69 132 64 173 -2 23 -11 30 -48
43 -33 11 -45 21 -45 35 0 18 7 20 60 20 53 0 60 2 63 21 3 23 -20 144 -36
184 -5 14 -9 27 -8 30 0 3 -7 16 -17 30 -26 37 -21 43 31 37 109 -13 150 -28
194 -68 60 -55 198 -118 198 -90 0 24 -148 146 -210 173 -68 30 -150 55 -203
62 -60 8 -94 21 -99 38 -5 14 -52 -31 -118 -112 -19 -24 -47 -54 -62 -68 -16
-14 -28 -29 -28 -34 0 -5 -30 -39 -66 -76 -37 -37 -77 -84 -90 -104 -14 -21
-33 -44 -44 -50 -11 -7 -20 -18 -20 -24 0 -6 -10 -19 -21 -30 l-21 -19 7 35
c4 19 18 62 32 95 13 33 29 74 34 90 6 17 14 39 19 50 30 75 50 129 50 136 0
16 35 89 42 89 5 0 8 6 8 14 0 8 11 36 24 63 14 27 31 70 38 96 6 26 16 47 20
47 4 0 8 6 8 13 0 8 9 22 20 32 11 10 20 23 20 29 0 12 8 27 78 156 72 132
100 195 90 199 -12 4 -58 -43 -58 -60 0 -6 -8 -23 -18 -37 -10 -15 -56 -103
-102 -197 -46 -93 -97 -189 -112 -212 -15 -23 -28 -47 -28 -53 0 -7 -16 -46
-35 -87 -19 -41 -35 -81 -35 -89 0 -8 -9 -34 -21 -57 -11 -23 -22 -49 -24 -57
-2 -8 -24 -74 -49 -147 -25 -72 -46 -140 -46 -150 0 -11 -5 -24 -11 -30 -6 -6
-13 -26 -16 -44 -3 -19 -11 -48 -17 -64 -7 -17 -16 -52 -20 -79 -4 -27 -11
-56 -16 -65 -4 -9 -16 -62 -26 -118 -10 -57 -22 -103 -26 -103 -4 0 -8 -10 -8
-22 -2 -66 -13 -148 -20 -148 -9 0 -25 69 -35 155 -21 165 -25 221 -25 320 0
61 5 164 11 230 27 306 26 286 6 300 -29 20 -43 9 -39 -29 3 -22 -2 -39 -13
-50 -21 -21 -23 -65 -4 -77 11 -7 10 -9 -3 -9 -12 0 -18 -8 -18 -22 0 -19 2
-20 10 -8 11 17 13 10 4 -14 -3 -9 -10 -13 -15 -10 -13 7 -11 -10 2 -23 8 -8
7 -13 -2 -18 -8 -5 -10 -4 -5 3 5 8 1 10 -9 5 -9 -3 -12 -9 -7 -12 5 -3 8 -13
6 -21 -17 -75 -20 -100 -12 -100 5 0 6 -5 2 -12 -4 -6 -8 -22 -10 -35 -2 -18
2 -23 12 -19 8 3 14 1 14 -4 0 -6 -10 -10 -22 -11 -13 0 -17 -3 -11 -6 9 -3
10 -10 3 -23 -8 -15 -6 -17 12 -12 l22 5 -23 -24 c-14 -15 -21 -32 -18 -46 2
-13 0 -23 -4 -23 -16 0 -9 -29 9 -39 15 -9 15 -10 1 -11 -14 0 -16 -13 -14
-96 1 -70 6 -98 16 -105 11 -7 10 -9 -4 -9 -12 0 -16 -4 -10 -12 4 -7 9 -29
10 -48 4 -52 8 -69 18 -77 4 -4 5 -3 2 3 -3 6 0 11 8 11 8 0 11 -5 8 -10 -3
-5 1 -13 8 -18 9 -7 4 -8 -16 -4 -16 3 -25 3 -18 -1 7 -3 9 -12 6 -21 -4 -11
-3 -14 6 -9 9 6 11 -2 7 -33 -3 -33 -1 -41 12 -41 10 0 13 -3 7 -8 -13 -9 -18
-35 -5 -27 5 3 10 2 10 -4 0 -5 -4 -12 -9 -16 -10 -6 -121 142 -121 161 0 6
-7 17 -15 24 -8 7 -21 24 -28 39 -20 39 -41 75 -48 81 -19 16 -93 180 -104
228 -9 43 -9 577 1 621 6 27 4 33 -7 29 -22 -7 -41 -180 -42 -385 0 -68 -3
-123 -7 -123 -3 0 -18 48 -34 108 -15 59 -32 118 -38 131 -5 14 -14 47 -19 75
-10 51 -12 68 -24 161 -7 56 -16 112 -20 135 -2 8 -4 18 -4 23 -1 4 -7 7 -15
7 -12 0 -13 -33 -9 -197 2 -109 4 -218 3 -243 0 -33 2 -41 10 -30 8 13 10 13
10 -2 0 -10 -4 -18 -9 -18 -9 0 -7 -21 15 -127 2 -13 12 -23 22 -23 15 -1 15
-2 1 -10 -10 -6 -15 -20 -13 -37 2 -15 6 -50 9 -78 5 -39 4 -46 -5 -32 -6 9
-8 22 -4 29 4 6 3 8 -4 4 -15 -9 -61 141 -77 251 -2 12 -6 34 -9 50 -3 15 -8
42 -10 58 -3 17 -12 73 -21 125 -23 135 -25 383 -3 570 6 47 12 106 14 131 2
25 9 68 14 95 6 27 12 58 14 69 7 51 18 114 26 150 5 22 13 72 19 110 6 39 13
84 16 100 2 17 16 58 29 93 14 34 25 66 25 70 2 16 24 77 31 82 3 3 14 25 24
50 10 25 20 51 23 58 3 6 -2 12 -10 12 -17 0 -32 -28 -72 -134 -14 -38 -29
-74 -34 -80 -5 -6 -12 -26 -16 -44 -9 -43 -52 -180 -62 -195 -4 -6 -8 -23 -9
-37 -2 -14 -10 -61 -18 -105 -8 -44 -17 -98 -20 -120 -3 -22 -9 -52 -15 -67
-5 -14 -7 -29 -4 -32 4 -3 1 -6 -5 -6 -7 0 -12 -12 -12 -27 0 -16 -7 -50 -15
-76 -8 -26 -10 -45 -5 -42 6 4 10 1 10 -4 0 -6 -6 -11 -12 -12 -10 0 -10 -2 0
-6 15 -6 16 -73 1 -73 -6 0 -9 6 -6 14 3 7 0 19 -6 25 -8 8 -14 -3 -24 -42 -8
-28 -19 -54 -25 -56 -7 -2 -6 -6 2 -11 10 -6 9 -15 -4 -40 -19 -39 -21 -54 -5
-44 7 4 10 1 7 -7 -3 -8 -11 -13 -17 -12 -9 3 -16 -32 -12 -59 0 -4 -8 -31
-18 -60 -17 -48 -22 -75 -36 -203 -11 -98 -17 -125 -26 -130 -5 -4 -6 -11 -3
-17 4 -7 2 -8 -4 -4 -15 9 -8 436 8 526 14 77 15 141 2 149 -13 8 -14 109 -3
149 6 20 6 30 0 27 -12 -8 -12 12 1 36 6 10 8 19 4 19 -10 0 -33 -33 -34 -49
0 -8 -9 -32 -19 -55 -45 -96 -65 -142 -67 -153 -1 -6 -7 -28 -14 -47 -6 -20
-8 -41 -4 -47 4 -8 3 -9 -4 -5 -7 4 -15 -9 -22 -36 -13 -52 -31 -90 -39 -82
-9 9 -10 226 0 269 4 22 13 63 19 90 6 28 12 57 13 67 2 9 7 22 13 30 21 28
64 116 64 131 0 8 4 17 9 19 11 4 25 68 14 68 -10 0 -18 -12 -71 -112 -23 -42
-42 -86 -42 -96 0 -10 -3 -22 -7 -26 -5 -4 -8 -11 -8 -14 -1 -4 -11 -34 -24
-67 -12 -33 -24 -67 -26 -75 -2 -8 -10 -28 -19 -45 -9 -16 -16 -36 -16 -43 0
-7 -4 -20 -10 -30 -9 -16 -37 -91 -45 -122 -20 -81 -38 -149 -42 -167 -3 -13
-11 -23 -17 -23 -12 0 -12 9 -5 140 0 8 7 78 14 155 7 77 13 149 13 160 0 11
2 36 5 55 15 101 18 158 9 164 -5 3 -13 -10 -16 -29 -7 -34 -26 -49 -26 -20 0
8 0 16 1 18 0 1 -4 14 -10 30 -8 20 -7 27 2 28 6 0 3 4 -8 9 -18 8 -18 9 -2 9
14 1 16 5 7 20 -12 24 -13 44 -2 37 5 -3 9 21 9 52 0 101 6 147 22 159 9 6 13
14 10 17 -3 3 -18 -7 -32 -24 -15 -16 -22 -30 -16 -30 6 0 3 -7 -5 -16 -19
-19 -20 -36 -4 -52 9 -9 8 -12 -4 -12 -9 0 -18 3 -21 8 -2 4 -2 2 -1 -5 2 -7
-1 -15 -6 -18 -5 -3 -19 -27 -31 -53 -20 -43 -24 -57 -32 -104 -2 -10 -7 -21
-12 -25 -4 -5 -5 -1 0 7 5 10 5 12 -2 5 -11 -11 -63 -173 -63 -197 0 -8 -7
-21 -15 -28 -13 -11 -13 -15 -3 -21 8 -6 9 -9 2 -9 -12 0 -29 -62 -25 -91 3
-22 -27 -46 -34 -28 -14 36 -7 252 9 277 3 6 4 16 1 24 -3 7 -1 43 3 81 8 64
1 90 -13 47 -3 -11 -10 -20 -14 -20 -5 0 -7 -11 -6 -24 2 -14 -3 -27 -10 -29
-13 -6 -65 -92 -65 -111 -1 -6 -9 -29 -20 -51 -10 -22 -16 -43 -14 -47 3 -5 0
-8 -6 -8 -7 0 -10 -7 -7 -15 4 -8 2 -17 -3 -20 -6 -4 -10 -15 -10 -25 0 -10
-7 -25 -15 -34 -8 -8 -15 -26 -15 -39 0 -14 -9 -31 -22 -39 -19 -13 -23 -27
-29 -105 -10 -144 -31 -150 -45 -13 -15 154 0 345 34 440 3 8 6 18 6 22 1 3 4
10 9 14 4 4 7 18 7 32 0 21 -2 22 -15 12 -8 -7 -15 -16 -15 -21 0 -5 -26 -68
-59 -141 -74 -168 -77 -175 -80 -200 -1 -9 -5 -8 -11 3 -5 9 -6 51 0 105 4 49
11 121 14 159 4 39 11 95 16 125 6 30 12 78 14 106 1 28 6 56 10 63 10 16 14
71 6 71 -22 0 -70 -207 -70 -297 0 -34 -5 -74 -10 -88 -11 -29 -16 -85 -25
-280 -5 -111 -16 -192 -39 -302 -2 -11 -8 -42 -11 -67 -4 -26 -11 -49 -17 -52
-11 -7 -9 565 4 661 5 39 15 122 23 185 7 63 18 133 23 155 27 112 34 142 43
170 6 17 12 41 15 55 6 29 83 226 112 285 37 76 82 174 82 179 0 3 18 32 40
63 22 32 40 64 40 71 0 6 4 12 9 12 5 0 14 13 19 29 13 38 127 196 206 286
277 317 377 416 514 510 56 39 111 78 123 87 12 10 34 23 50 30 16 7 29 16 29
20 0 3 14 9 30 13 17 4 30 10 30 15 0 5 21 16 48 26 26 10 58 24 72 31 14 7
30 13 36 13 6 0 22 8 35 19 13 10 35 22 49 26 14 4 48 18 75 30 28 13 73 29
100 35 28 7 55 16 60 20 18 13 189 64 209 62 11 0 26 3 35 7 9 5 33 12 53 15
21 3 59 11 85 17 27 6 64 13 83 14 125 13 154 16 161 21 18 11 130 16 409 19
278 4 302 2 411 -20 133 -27 183 -42 287 -90 41 -19 76 -35 78 -35 2 0 4 7 4
16 0 8 -4 13 -9 10 -5 -4 -11 -3 -13 1 -10 23 -255 123 -301 123 -9 0 -19 5
-22 10 -10 16 165 12 242 -6z m-4857 -970 c0 -8 10 -14 24 -14 14 0 28 -5 32
-11 4 -8 9 -7 15 2 6 10 9 11 9 2 0 -8 13 -13 29 -13 17 0 33 -5 36 -10 4 -6
10 -8 15 -5 5 3 12 1 15 -5 4 -6 15 -8 25 -5 13 4 24 -2 36 -20 9 -14 24 -25
33 -25 9 0 22 -5 29 -12 9 -9 12 -9 12 3 1 12 2 11 10 -1 5 -9 8 -56 6 -105
-1 -50 1 -105 5 -122 4 -18 4 -33 0 -33 -7 0 -6 -26 3 -93 3 -23 1 -35 -4 -32
-6 4 -10 1 -10 -4 0 -6 8 -11 18 -12 9 0 12 -3 5 -5 -8 -4 -10 -28 -6 -82 5
-81 6 -140 3 -157 -1 -5 -1 -14 0 -20 3 -9 12 -222 11 -255 -1 -96 -9 -188
-16 -199 -5 -9 -4 -12 3 -7 7 4 10 -30 10 -113 0 -65 2 -124 6 -129 3 -6 1
-14 -5 -18 -8 -5 -9 -3 -4 6 5 9 4 11 -3 6 -9 -5 -9 -13 -1 -28 10 -19 7 -93
-7 -135 -4 -11 -3 -14 3 -6 9 13 8 -199 -2 -237 -3 -14 -1 -38 4 -53 6 -16 7
-26 2 -23 -5 3 -14 -1 -21 -9 -11 -13 -10 -14 6 -9 16 6 17 5 7 -7 -15 -16
-17 -33 -3 -24 6 3 10 -1 10 -9 0 -9 -4 -16 -10 -16 -5 0 -9 -11 -8 -25 1 -14
7 -25 13 -25 6 0 7 -3 0 -8 -16 -11 -19 -45 -3 -37 10 6 11 5 1 -6 -15 -15
-18 -53 -4 -44 6 3 6 -6 1 -24 -6 -21 -5 -32 3 -35 7 -3 -13 -3 -43 0 -30 3
-57 10 -59 16 -2 7 -5 7 -10 0 -4 -7 -20 -5 -46 5 -22 8 -59 16 -81 18 -51 4
-114 25 -115 40 -7 68 -5 163 3 173 7 8 7 12 -1 12 -9 0 -11 33 -9 120 2 75
-1 120 -7 121 -5 0 -5 3 2 5 6 3 9 16 7 31 -9 46 -10 324 -2 329 5 3 5 11 1
17 -10 16 -10 857 0 857 4 0 4 7 -1 16 -5 9 -6 34 -2 55 4 22 3 39 -2 39 -5 0
-6 5 -2 12 4 6 9 95 10 197 2 102 4 191 5 198 3 16 19 6 19 -13z m480 -155 c8
-10 93 -52 110 -54 27 -4 60 -17 60 -24 0 -4 11 -8 25 -9 14 -1 43 -13 65 -27
l39 -25 0 -109 c-1 -60 2 -115 6 -122 5 -8 4 -10 -4 -5 -8 6 -10 1 -6 -16 12
-52 13 -208 2 -208 -9 0 -9 -2 -1 -8 7 -4 12 -65 13 -172 4 -283 5 -295 16
-302 6 -5 6 -8 -2 -8 -9 0 -12 -49 -13 -182 -2 -322 -7 -545 -12 -554 -3 -5
-5 -38 -3 -74 1 -36 -3 -68 -8 -72 -7 -4 -6 -12 2 -22 11 -13 11 -16 0 -17 -8
0 -9 -2 -3 -5 14 -6 6 -54 -10 -55 -6 0 -2 -5 9 -10 l20 -9 -20 3 c-12 2 -19
10 -19 20 1 9 -3 17 -8 17 -6 0 -8 10 -5 23 7 26 -7 55 -17 38 -4 -6 -2 -11 4
-11 7 0 7 -7 -1 -22 -13 -26 -34 -41 -63 -45 -29 -5 -33 -13 -6 -13 22 0 23
-1 5 -20 -10 -11 -15 -20 -11 -20 11 0 36 27 36 39 0 6 6 11 14 11 8 0 16 6
19 13 2 6 8 9 12 5 4 -4 -3 -16 -16 -27 -13 -11 -19 -21 -14 -21 6 0 -3 -9
-20 -20 -21 -14 -25 -20 -12 -20 9 0 17 5 17 12 0 6 3 8 6 5 4 -4 2 -13 -4
-20 -7 -8 -10 -16 -7 -19 3 -2 -10 -3 -28 -2 -17 1 -38 3 -45 3 -7 1 -11 4 -9
9 3 4 -22 8 -56 10 -66 3 -112 24 -80 36 14 6 15 9 3 16 -7 5 -14 18 -15 29
-1 16 1 18 12 10 11 -10 12 -5 9 25 -3 22 -1 34 4 31 6 -3 7 1 4 9 -11 28 -23
17 -19 -16 3 -31 3 -31 -8 -10 -8 18 -8 28 1 42 6 10 9 29 7 42 -11 59 -12 97
-3 91 6 -3 8 2 5 13 -15 50 -19 77 -11 71 10 -5 10 38 1 63 -11 28 -12 110 -2
110 7 0 7 3 0 8 -11 8 -16 1112 -4 1112 3 0 4 15 2 33 -3 17 -4 50 -4 72 0 22
0 109 0 193 0 84 3 157 6 162 6 10 26 9 35 -1z m466 -176 c12 -28 20 -378 10
-451 -3 -24 -2 -41 3 -38 4 3 7 -8 5 -25 -2 -16 0 -28 5 -25 5 3 4 -13 -1 -37
-6 -23 -10 -46 -9 -52 4 -33 3 -218 -1 -322 -3 -70 -2 -120 3 -117 5 3 9 0 9
-5 0 -6 4 -11 9 -11 5 0 22 -5 38 -12 43 -17 77 -18 90 -1 10 13 12 10 9 -21
-2 -28 2 -40 16 -47 10 -5 18 -6 18 -2 0 4 3 199 6 433 8 627 8 624 17 638 6
9 12 10 21 3 7 -6 15 -9 18 -6 3 3 6 -20 7 -51 1 -31 4 -61 7 -66 3 -5 2 -14
-3 -21 -5 -7 -7 -48 -3 -92 3 -44 6 -104 5 -132 0 -29 5 -53 10 -53 6 0 5 -4
-1 -8 -8 -4 -9 -22 -5 -52 4 -25 5 -110 4 -190 -2 -80 -2 -199 -1 -265 3 -221
3 -279 -1 -505 -2 -124 0 -254 3 -290 4 -36 8 -99 10 -141 2 -43 7 -82 10 -88
4 -6 3 -11 -2 -11 -5 0 -12 -8 -15 -17 -2 -10 -8 -27 -12 -38 -5 -14 -4 -16 3
-6 7 10 14 11 31 2 12 -7 18 -17 15 -23 -4 -6 -3 -8 3 -5 6 4 20 -4 32 -17 18
-19 19 -25 7 -29 -8 -3 -17 -19 -21 -36 -4 -17 -13 -34 -21 -39 -11 -6 -9 -10
7 -20 18 -12 20 -11 15 5 -6 20 20 61 31 49 4 -4 3 -10 -2 -14 -14 -10 -17
-32 -5 -32 12 0 9 -42 -4 -52 -12 -8 -36 1 -36 16 0 6 -15 11 -33 12 -17 1
-26 -1 -19 -3 6 -3 12 -11 12 -19 0 -8 10 -14 26 -14 22 0 25 -2 14 -15 -16
-20 -6 -19 26 1 23 16 24 15 17 -1 -5 -15 -3 -17 13 -11 12 5 8 -4 -13 -25
-18 -17 -33 -36 -33 -41 0 -5 -5 -6 -10 -3 -6 4 -8 15 -5 26 5 14 2 19 -10 19
-11 0 -15 -5 -11 -15 3 -8 0 -15 -7 -15 -7 0 -1 -6 13 -13 14 -7 26 -21 28
-32 3 -17 1 -17 -7 -5 -10 13 -12 13 -21 0 -7 -11 -5 -17 8 -21 14 -5 14 -7
-6 -18 -22 -12 -23 -11 -20 23 1 19 -1 39 -5 42 -16 16 -32 -20 -33 -74 -3
-96 -4 -103 -14 -97 -5 3 -10 1 -10 -4 0 -13 17 -14 24 -2 3 5 16 7 28 3 14
-3 19 -2 14 6 -4 7 -2 12 3 12 6 0 11 -4 11 -10 0 -5 7 -7 16 -3 9 3 14 13 11
24 -3 10 2 20 10 23 11 4 13 1 8 -14 -5 -14 -2 -20 10 -20 11 0 16 -7 14 -22
-2 -13 0 -28 4 -35 4 -6 3 -14 -2 -17 -5 -3 -7 -16 -5 -29 2 -12 1 -15 -2 -7
-4 8 -12 18 -17 22 -7 4 -7 11 0 20 8 10 8 18 -3 32 -14 19 -14 19 -14 -3 0
-12 -4 -19 -10 -16 -5 3 -10 -4 -10 -15 0 -19 -4 -21 -25 -16 -14 4 -35 1 -48
-5 -22 -12 -22 -12 -4 9 19 21 16 42 -6 42 -8 0 -7 -3 2 -9 15 -10 7 -31 -13
-31 -10 0 -13 40 -14 184 0 102 -3 189 -7 195 -3 6 -1 11 5 11 7 0 8 6 2 18
-9 20 -8 94 2 111 4 6 3 11 -1 11 -10 0 -10 41 0 57 4 7 3 14 -3 18 -5 3 -10
11 -10 16 0 6 4 8 8 5 5 -3 9 1 9 9 0 8 -3 15 -7 15 -3 0 -6 49 -6 110 1 67
-3 110 -9 111 -6 0 -6 2 0 5 10 4 11 114 2 242 -2 24 -1 45 2 47 3 2 5 38 4
82 -1 43 -3 108 -3 146 -1 39 -5 65 -11 62 -5 -4 -9 -1 -9 4 0 6 -4 11 -9 11
-6 0 -9 -12 -7 -27 1 -16 -2 -34 -7 -40 -6 -9 -4 -15 6 -19 12 -4 14 -11 7
-30 -6 -14 -9 -64 -9 -112 1 -120 3 -115 -22 -102 -11 7 -23 9 -27 6 -3 -3 0
-6 7 -6 7 0 9 -4 6 -10 -3 -6 1 -7 9 -4 23 9 35 -35 27 -93 -1 -3 -10 4 -21
17 -11 13 -20 19 -20 15 0 -15 32 -45 48 -45 10 0 12 -4 5 -12 -6 -7 -10 -25
-9 -40 1 -16 -2 -28 -7 -28 -5 0 -4 -7 3 -15 10 -12 10 -15 -1 -15 -10 -1 -9
-4 3 -11 9 -5 15 -16 12 -24 -4 -8 -10 -12 -15 -9 -5 3 -4 -7 1 -21 14 -36 13
-37 -12 -24 -21 11 -22 11 -9 -5 11 -13 11 -22 3 -41 -7 -15 -7 -25 -1 -27 5
-2 11 -16 13 -31 1 -15 5 -30 9 -33 7 -8 -3 -34 -13 -34 -12 0 -19 39 -9 46 5
3 9 11 8 17 0 9 -2 8 -6 -1 -2 -6 -9 -9 -15 -6 -17 11 0 -49 18 -62 7 -6 14
-20 13 -30 0 -18 -1 -18 -9 1 -7 16 -9 13 -9 -17 -1 -21 -5 -38 -11 -38 -5 0
-7 8 -4 18 4 11 0 9 -14 -7 -13 -17 -26 -22 -41 -18 -11 3 -21 0 -21 -5 0 -7
17 -8 48 -5 34 5 42 4 30 -4 -10 -5 -18 -15 -18 -22 0 -7 4 -6 10 3 9 13 11
13 20 0 8 -12 10 -12 10 5 0 17 2 17 10 5 6 -10 6 -16 0 -18 -6 -2 -8 -7 -5
-11 2 -5 -8 -6 -23 -4 -15 3 -23 1 -17 -4 6 -4 16 -20 24 -34 10 -21 11 -31 1
-49 -9 -18 -9 -21 0 -15 8 5 11 3 8 -6 -3 -8 -16 -13 -29 -12 -13 1 -18 0 -11
-3 14 -7 16 -54 2 -54 -14 0 -12 -34 3 -49 10 -10 9 -12 -3 -11 -29 4 -55 0
-45 -8 6 -4 16 -19 22 -34 11 -24 10 -28 -2 -28 -8 0 -15 6 -15 13 0 9 -2 9
-9 -1 -6 -11 -9 -9 -14 7 -3 13 1 21 12 24 14 3 14 5 -2 12 -24 10 -46 -10
-29 -27 17 -17 15 -49 -2 -42 -7 3 -13 13 -12 22 1 11 -5 16 -16 14 -14 -2
-17 3 -16 23 1 14 7 25 13 25 5 0 3 5 -5 10 -8 5 -10 10 -5 10 6 0 3 5 -5 10
-8 5 -10 10 -4 10 6 0 10 10 8 23 -1 12 -3 22 -4 22 -1 0 -4 13 -6 28 -4 23
-1 30 16 34 11 3 20 10 20 17 0 6 5 4 10 -4 8 -13 10 -13 10 2 0 23 -19 33
-26 14 -14 -35 -25 -13 -23 44 1 33 -1 63 -4 67 -4 3 -7 11 -7 17 0 6 5 4 10
-4 8 -13 10 -12 10 3 0 9 -4 17 -10 17 -5 0 -10 17 -10 38 0 27 3 33 10 22 6
-9 10 -10 10 -3 0 6 -4 14 -8 17 -8 5 -12 152 -11 406 0 63 0 120 -1 125 -2
26 -5 1219 -2 1358 3 148 9 181 28 140z m519 -184 c14 -21 7 -156 -9 -189 -33
-71 -40 -78 -54 -64 -7 8 -8 14 -3 14 5 0 10 17 11 38 1 57 7 196 9 209 1 12
38 6 46 -8z m-340 -271 c-1 -13 -3 -27 -4 -31 -1 -11 -21 2 -21 14 0 6 5 7 10
4 6 -3 10 -1 10 4 0 6 -5 11 -11 11 -5 0 -7 5 -4 10 11 18 22 11 20 -12z m251
-67 c0 -11 -4 -17 -8 -15 -4 3 -8 12 -8 20 0 8 4 14 8 14 4 0 8 -9 8 -19z
m-259 -13 c-3 -8 -6 -5 -6 6 -1 11 2 17 5 13 3 -3 4 -12 1 -19z m-2 -66 c-3
-3 -11 0 -18 7 -9 10 -8 11 6 5 10 -3 15 -9 12 -12z m8 -73 c3 -11 1 -19 -5
-17 -5 2 -9 7 -8 12 1 5 -4 13 -12 17 -10 7 -9 9 3 9 9 0 19 -9 22 -21z m7
-40 c12 -9 12 -10 -4 -5 -13 5 -17 2 -12 -9 3 -8 1 -15 -4 -15 -6 0 -10 9 -10
20 0 22 8 25 30 9z m7097 -22 c4 -5 9 -32 10 -60 6 -116 8 -2237 2 -2237 -3 0
-5 -94 -4 -209 1 -115 -1 -215 -5 -221 -6 -9 -61 -13 -196 -14 -113 0 -192 -5
-196 -11 -5 -7 -8 -7 -8 0 0 7 -278 10 -813 11 -1010 2 -1056 3 -1079 28 -10
10 -18 25 -18 33 0 7 -5 13 -11 13 -6 0 -8 -7 -5 -15 6 -17 -20 -92 -39 -114
-7 -7 -18 -10 -23 -7 -11 7 24 98 39 104 5 2 7 7 4 12 -10 16 14 60 29 54 13
-5 15 2 11 35 -2 23 1 41 6 41 5 0 9 6 8 13 -7 37 33 139 54 136 32 -4 54 3
77 24 14 12 49 40 78 61 28 21 52 44 52 52 0 8 4 13 9 12 23 -7 184 172 212
237 8 17 26 48 41 69 16 21 28 45 28 52 0 7 4 14 10 16 15 5 103 207 141 323
18 55 34 102 36 105 24 28 14 -150 -12 -230 -9 -24 -18 -68 -22 -98 -5 -46 -4
-52 11 -46 17 7 47 58 61 104 4 14 25 62 46 106 22 45 39 88 39 96 0 8 10 34
22 59 12 26 25 77 29 124 12 119 25 186 42 228 36 86 53 332 37 542 -12 168
-45 446 -61 517 -6 26 -9 51 -6 55 7 11 1353 10 1364 0z m-7117 -27 c5 8 9 7
13 -4 4 -9 1 -16 -6 -17 -7 0 -4 -4 5 -7 17 -7 17 -8 0 -19 -14 -8 -19 -8 -19
0 0 7 -3 23 -6 37 -4 14 -4 19 -1 11 5 -10 8 -10 14 -1z m950 -84 c0 -3 -4 -8
-10 -11 -5 -3 -10 -1 -10 4 0 6 5 11 10 11 6 0 10 -2 10 -4z m-930 -24 c0 -5
-7 -9 -15 -9 -8 0 -12 4 -9 9 3 4 9 8 15 8 5 0 9 -4 9 -8z m-5 -32 c3 -5 1
-10 -4 -10 -6 0 -11 5 -11 10 0 6 2 10 4 10 3 0 8 -4 11 -10z m935 -17 c0 -10
-4 -14 -8 -8 -4 6 -11 13 -16 18 -5 4 -2 7 7 7 10 0 17 -8 17 -17z m2714 -73
c-10 -28 -21 -50 -24 -50 -3 0 -7 -15 -8 -32 -5 -82 -36 -196 -59 -219 -10
-10 -98 6 -119 22 -6 5 -21 10 -34 12 -36 6 -34 20 10 67 22 23 40 46 40 51 0
5 7 9 15 9 8 0 15 6 15 13 0 15 61 72 74 69 5 -2 6 4 3 13 -4 8 -2 15 4 15 13
0 69 51 69 63 0 13 25 36 28 26 2 -5 -4 -32 -14 -59z m-3644 15 c0 -8 -4 -15
-10 -15 -5 0 -7 7 -4 15 4 8 8 15 10 15 2 0 4 -7 4 -15z m907 -7 c-3 -8 -6 -5
-6 6 -1 11 2 17 5 13 3 -3 4 -12 1 -19z m-41 -33 c-3 -8 3 -16 12 -18 13 -4
12 -5 -4 -6 -17 -1 -22 4 -20 23 0 13 5 22 9 19 5 -3 6 -11 3 -18z m-873 -35
c-7 -28 -13 -25 -13 6 0 14 4 23 9 20 5 -3 7 -15 4 -26z m862 -28 c-3 -3 -11
0 -18 7 -9 10 -8 11 6 5 10 -3 15 -9 12 -12z m-8 -44 c-3 -8 -6 -5 -6 6 -1 11
2 17 5 13 3 -3 4 -12 1 -19z m-20 -40 c-3 -8 -6 -5 -6 6 -1 11 2 17 5 13 3 -3
4 -12 1 -19z m-177 -18 c0 -5 -4 -10 -10 -10 -5 0 -10 5 -10 10 0 6 5 10 10
10 6 0 10 -4 10 -10z m287 -22 c-3 -7 -5 -2 -5 12 0 14 2 19 5 13 2 -7 2 -19
0 -25z m-17 12 c0 -5 -2 -10 -4 -10 -3 0 -8 5 -11 10 -3 6 -1 10 4 10 6 0 11
-4 11 -10z m-300 -17 c-8 -3 -18 -11 -22 -17 -5 -7 -8 -4 -8 7 0 11 7 17 23
16 15 0 17 -2 7 -6z m4149 -80 c7 -32 17 -70 22 -84 6 -14 11 -45 12 -70 2
-43 1 -44 -30 -47 l-33 -3 0 94 c0 52 -3 116 -7 143 -5 43 -4 47 9 37 8 -7 20
-39 27 -70z m-3855 11 c5 -14 4 -15 -9 -4 -17 14 -19 20 -6 20 5 0 12 -7 15
-16z m-294 2 c0 -2 -7 -7 -16 -10 -8 -3 -12 -2 -9 4 6 10 25 14 25 6z m160 -5
c0 -5 -9 -11 -19 -14 -14 -3 -18 -1 -14 9 6 15 33 19 33 5z m51 -14 c-10 -9
-11 -8 -5 6 3 10 9 15 12 12 3 -3 0 -11 -7 -18z m89 -11 c0 -11 -19 -15 -25
-6 -3 5 1 10 9 10 9 0 16 -2 16 -4z m-106 -75 c-16 -14 -17 -14 -6 0 7 9 10
25 6 35 -5 18 -5 18 6 0 10 -15 9 -21 -6 -35z m-251 -6 c-3 -9 -8 -14 -10 -11
-3 3 -2 9 2 15 9 16 15 13 8 -4z m31 -19 c-6 -16 -24 -13 -24 5 0 6 5 7 10 4
6 -3 10 -1 10 6 0 7 2 10 5 7 3 -3 3 -13 -1 -22z m676 -120 c0 -3 -4 -8 -10
-11 -5 -3 -10 -1 -10 4 0 6 5 11 10 11 6 0 10 -2 10 -4z m-436 -32 c3 -8 2
-12 -4 -9 -6 3 -10 10 -10 16 0 14 7 11 14 -7z m283 10 c-3 -3 -12 -4 -19 -1
-8 3 -5 6 6 6 11 1 17 -2 13 -5z m-827 -64 c0 -5 -2 -10 -4 -10 -3 0 -8 5 -11
10 -3 6 -1 10 4 10 6 0 11 -4 11 -10z m40 -20 c0 -5 -5 -10 -11 -10 -5 0 -7 5
-4 10 3 6 8 10 11 10 2 0 4 -4 4 -10z m367 -5 c0 -8 -4 -12 -9 -9 -5 3 -6 10
-3 15 9 13 12 11 12 -6z m193 -15 c0 -5 -5 -10 -11 -10 -5 0 -7 5 -4 10 3 6 8
10 11 10 2 0 4 -4 4 -10z m-553 -6 c-3 -3 -12 -4 -19 -1 -8 3 -5 6 6 6 11 1
17 -2 13 -5z m548 -35 c-4 -5 -12 -9 -18 -8 -9 0 -8 2 1 6 6 2 9 10 6 15 -4 7
-2 8 5 4 6 -4 9 -12 6 -17z m595 -40 c0 -6 -4 -7 -10 -4 -5 3 -10 11 -10 16 0
6 5 7 10 4 6 -3 10 -11 10 -16z m-1190 -5 c0 -8 -4 -12 -10 -9 -5 3 -10 10
-10 16 0 5 5 9 10 9 6 0 10 -7 10 -16z m4650 2 c0 -3 -4 -8 -10 -11 -5 -3 -10
-1 -10 4 0 6 5 11 10 11 6 0 10 -2 10 -4z m-4380 -50 c0 -3 -4 -8 -10 -11 -5
-3 -10 -1 -10 4 0 6 5 11 10 11 6 0 10 -2 10 -4z m960 -32 c6 -14 10 -43 10
-65 0 -37 -2 -40 -22 -33 -29 10 -68 10 -92 -1 -17 -7 -19 -5 -13 21 11 54 27
85 49 94 39 15 58 11 68 -16z m-1293 -41 c2 -26 5 -74 6 -105 1 -32 6 -58 10
-58 4 0 3 -8 -2 -19 -6 -10 -9 -28 -6 -39 4 -22 -18 -77 -35 -87 -5 -3 -16 5
-25 19 -14 21 -14 30 -1 87 8 35 20 108 27 161 7 54 14 96 17 94 2 -3 6 -26 9
-53z m483 43 c0 -3 -4 -8 -10 -11 -5 -3 -10 -1 -10 4 0 6 5 11 10 11 6 0 10
-2 10 -4z m115 -6 c3 -5 1 -10 -4 -10 -6 0 -11 5 -11 10 0 6 2 10 4 10 3 0 8
-4 11 -10z m-265 -37 c-11 -17 -11 -17 -6 0 3 10 6 24 7 30 0 9 2 9 5 0 3 -7
0 -20 -6 -30z m550 7 c0 -5 -5 -10 -11 -10 -5 0 -7 5 -4 10 3 6 8 10 11 10 2
0 4 -4 4 -10z m1114 -65 c-4 -8 -8 -15 -10 -15 -2 0 -4 7 -4 15 0 8 4 15 10
15 5 0 7 -7 4 -15z m-2630 -30 c-8 -19 -10 -35 -5 -35 5 0 13 9 16 21 9 28 28
18 36 -19 5 -24 3 -32 -7 -32 -8 0 -14 10 -14 22 0 19 -1 20 -17 5 -15 -12
-20 -13 -30 -2 -7 8 -8 15 -3 17 5 2 11 15 12 31 1 15 8 27 15 27 9 0 8 -9 -3
-35z m1126 -75 c-12 -22 -25 -26 -35 -10 -3 5 0 7 8 4 8 -3 17 2 20 10 4 9 9
16 12 16 3 0 1 -9 -5 -20z m364 -16 c4 -10 2 -13 -6 -8 -8 5 -9 1 -4 -12 5
-14 4 -16 -4 -8 -6 6 -8 18 -4 27 8 21 10 21 18 1z m621 -4 c3 -5 1 -10 -4
-10 -6 0 -11 5 -11 10 0 6 2 10 4 10 3 0 8 -4 11 -10z m-1280 -10 c-3 -5 -11
-10 -16 -10 -6 0 -7 5 -4 10 3 6 11 10 16 10 6 0 7 -4 4 -10z m155 -27 c0 -5
-5 -15 -10 -23 -8 -12 -10 -11 -10 8 0 12 5 22 10 22 6 0 10 -3 10 -7z m1117
-25 c-3 -7 -5 -2 -5 12 0 14 2 19 5 13 2 -7 2 -19 0 -25z m-614 7 c-3 -9 -8
-14 -10 -11 -3 3 -2 9 2 15 9 16 15 13 8 -4z m640 -33 c3 -24 1 -40 -4 -36 -5
3 -9 24 -9 46 0 51 5 47 13 -10z m-1036 6 c-3 -8 -6 -5 -6 6 -1 11 2 17 5 13
3 -3 4 -12 1 -19z m-442 -8 c3 -5 1 -10 -4 -10 -6 0 -11 5 -11 10 0 6 2 10 4
10 3 0 8 -4 11 -10z m331 -15 c-1 -26 -12 -33 -18 -13 -4 10 9 35 18 38 1 0 1
-11 0 -25z m1618 -19 c-6 -16 -24 -13 -24 5 0 6 5 7 11 3 8 -4 9 1 5 17 -6 19
-5 21 4 7 5 -9 7 -23 4 -32z m-1487 9 c0 -8 -4 -15 -9 -15 -10 0 -11 14 -1 23
9 10 10 9 10 -8z m228 5 c3 -5 1 -10 -4 -10 -6 0 -11 5 -11 10 0 6 2 10 4 10
3 0 8 -4 11 -10z m-692 -30 c3 -11 1 -20 -4 -20 -5 0 -9 9 -9 20 0 11 2 20 4
20 2 0 6 -9 9 -20z m837 11 c0 -5 -7 -11 -14 -14 -10 -4 -13 -1 -9 9 6 15 23
19 23 5z m30 0 c0 -6 -4 -13 -10 -16 -5 -3 -10 1 -10 9 0 9 5 16 10 16 6 0 10
-4 10 -9z m-897 -38 c-5 -12 -3 -14 7 -8 9 5 11 4 6 -4 -6 -8 -12 -9 -20 -2
-7 6 -16 8 -19 4 -4 -3 -7 -1 -7 5 0 9 15 19 32 21 4 1 4 -6 1 -16z m1977 13
c0 -3 -4 -8 -10 -11 -5 -3 -10 -1 -10 4 0 6 5 11 10 11 6 0 10 -2 10 -4z
m-1861 -148 c7 -32 17 -58 22 -58 5 0 9 -5 9 -11 0 -6 18 -48 39 -92 22 -45
42 -89 45 -97 15 -39 55 -95 70 -98 16 -3 17 9 13 155 -3 171 1 273 12 273 7
0 21 -44 68 -215 21 -77 24 -104 19 -182 -3 -51 -1 -104 4 -118 9 -23 7 -25
-16 -25 -32 0 -94 26 -94 39 0 13 -22 10 -33 -4 -6 -6 -10 -6 -14 2 -3 10 -10
10 -24 2 -15 -7 -24 -7 -34 1 -8 7 -19 9 -25 5 -5 -3 -10 -2 -10 3 0 5 -10 9
-22 9 -13 0 -36 5 -52 12 -23 9 -27 15 -22 36 4 15 2 25 -4 25 -6 0 -8 5 -5
10 3 6 0 10 -7 11 -7 0 -4 4 7 9 11 5 16 9 10 9 -6 1 -10 46 -10 115 0 63 3
112 8 109 4 -2 5 13 2 34 -9 56 -13 156 -7 172 6 17 34 -54 51 -131z m761 132
c0 -5 -2 -10 -4 -10 -3 0 -8 5 -11 10 -3 6 -1 10 4 10 6 0 11 -4 11 -10z m26
-16 c-3 -9 -6 -20 -6 -25 0 -6 -5 -7 -10 -4 -8 5 -8 11 -1 19 6 7 8 16 4 19
-3 4 -1 7 6 7 8 0 11 -6 7 -16z m1081 -16 c-3 -8 -6 -5 -6 6 -1 11 2 17 5 13
3 -3 4 -12 1 -19z m-3257 -21 c0 -5 -8 -16 -17 -24 -17 -14 -17 -14 2 -8 11 4
26 8 33 8 6 0 12 12 12 26 0 17 3 22 8 13 5 -7 16 -10 25 -6 9 3 17 2 17 -4 0
-6 -6 -12 -12 -14 -7 -3 3 -10 22 -16 30 -10 32 -10 18 2 -22 16 -23 23 -3 23
8 0 15 -4 15 -9 0 -5 7 -5 15 -1 8 5 32 7 53 5 31 -4 34 -6 17 -14 -16 -6 -13
-7 11 -5 23 2 31 0 27 -10 -3 -9 0 -11 10 -7 11 4 14 -2 13 -26 -1 -17 -7 -35
-15 -39 -9 -6 -10 -11 -2 -15 6 -4 16 -4 21 -1 6 3 10 1 10 -4 0 -6 -5 -11
-11 -11 -8 0 -7 -6 2 -17 13 -15 12 -15 -7 -5 -16 9 -21 8 -21 -4 0 -7 4 -14
9 -14 4 0 8 -9 8 -21 0 -13 4 -18 13 -13 9 6 9 4 -1 -8 -7 -8 -10 -23 -6 -32
6 -16 -11 -23 -20 -8 -3 5 -20 9 -38 10 -18 0 -34 5 -36 11 -2 5 -9 8 -15 6
-19 -7 -33 7 -41 40 -6 24 -5 28 5 18 17 -17 26 -16 33 3 5 14 4 15 -8 5 -8
-7 -17 -8 -20 -3 -8 13 19 23 47 18 12 -1 16 -1 9 1 -7 3 -10 9 -7 14 8 11
-40 -6 -67 -25 -11 -8 -15 -17 -9 -20 5 -4 9 -15 8 -25 -1 -21 -31 -18 -61 8
-11 9 -16 11 -13 5 11 -19 -15 -22 -53 -8 -19 7 -31 13 -26 13 5 1 3 8 -4 16
-9 11 -9 15 -1 15 7 0 9 5 5 12 -5 8 -2 9 11 4 18 -6 18 -6 -1 15 -11 14 -13
19 -4 14 12 -7 13 -6 4 6 -15 19 -27 82 -14 74 6 -4 8 3 6 17 -5 31 12 52 30
37 8 -6 14 -16 14 -22z m2010 -7 c6 -11 8 -20 6 -20 -3 0 -10 9 -16 20 -6 11
-8 20 -6 20 3 0 10 -9 16 -20z m-712 -22 c-7 -4 -17 -8 -23 -8 -5 0 -3 5 5 10
13 8 12 10 -2 10 -10 0 -18 4 -18 10 0 6 10 5 25 -2 19 -8 22 -14 13 -20z
m222 22 c0 -5 -2 -10 -4 -10 -3 0 -8 5 -11 10 -3 6 -1 10 4 10 6 0 11 -4 11
-10z m375 -11 c11 -16 1 -19 -13 -3 -7 8 -8 14 -3 14 5 0 13 -5 16 -11z m180
1 c3 -5 1 -10 -4 -10 -6 0 -11 5 -11 10 0 6 2 10 4 10 3 0 8 -4 11 -10z m750
0 c-3 -5 -12 -10 -18 -10 -7 0 -6 4 3 10 19 12 23 12 15 0z m-639 -25 c9 -8
11 -15 5 -15 -5 0 -12 4 -16 10 -3 5 -13 7 -23 4 -14 -5 -15 -4 -2 5 19 14 19
14 36 -4z m644 -5 c0 -5 -8 -10 -17 -10 -15 0 -16 2 -3 10 19 12 20 12 20 0z
m430 -12 c0 -4 -4 -8 -9 -8 -6 0 -12 4 -15 8 -3 5 1 9 9 9 8 0 15 -4 15 -9z
m-2860 -28 c0 -5 -5 -10 -11 -10 -5 0 -7 5 -4 10 3 6 8 10 11 10 2 0 4 -4 4
-10z m142 -22 c14 14 48 16 48 4 0 -5 10 -14 23 -20 12 -6 16 -11 10 -11 -7
-1 -13 -5 -13 -11 0 -5 7 -7 15 -4 8 4 15 1 15 -6 0 -6 5 -8 10 -5 6 3 10 11
10 16 0 6 -4 7 -10 4 -5 -3 -10 0 -10 8 0 13 14 15 53 8 4 0 7 -6 7 -12 0 -8
-4 -8 -13 0 -10 8 -14 7 -14 -4 0 -18 11 -19 37 -5 16 8 18 8 14 -5 -4 -8 -16
-16 -28 -16 -19 -2 -19 -2 2 -6 23 -4 23 -5 5 -19 -12 -9 -13 -13 -4 -12 10 2
15 -7 16 -29 0 -18 -3 -33 -7 -33 -4 0 -9 10 -9 23 -1 16 -3 17 -6 5 -3 -14
-9 -15 -28 -8 -15 6 -27 6 -30 0 -4 -6 -14 -10 -23 -10 -15 0 -15 2 -2 10 20
13 4 13 -21 0 -10 -6 -19 -17 -19 -25 0 -9 -6 -12 -17 -9 -17 5 -17 5 0 -9 16
-14 16 -15 -7 -19 -15 -3 -24 -1 -23 6 1 6 -11 10 -28 9 -16 -1 -22 1 -12 4 9
2 17 9 17 15 0 7 5 6 15 -2 12 -10 14 -7 10 20 -5 38 -15 53 -15 22 0 -12 -4
-22 -10 -22 -19 0 -25 -3 -37 -19 -10 -14 -13 -13 -32 9 -24 30 -27 41 -6 34
8 -4 15 -2 15 4 0 6 10 8 23 6 12 -2 16 -2 10 2 -18 8 -16 25 2 18 22 -9 18
-34 -5 -34 -11 0 -20 -4 -20 -9 0 -4 11 -6 25 -3 16 3 25 11 25 23 0 11 6 19
13 19 9 0 8 3 -2 9 -8 5 -9 11 -3 15 12 7 36 -49 27 -63 -3 -7 3 -11 15 -11
17 0 19 3 10 19 -7 13 -7 22 0 26 5 3 10 0 10 -7 0 -7 7 -3 14 8 18 25 17 62
-1 68 -7 3 -10 12 -7 21 3 8 1 15 -5 15 -6 0 -11 -2 -11 -4 0 -2 -3 -11 -6
-20 -4 -10 -1 -16 9 -16 16 0 30 -47 16 -56 -5 -3 -9 0 -9 6 0 7 -7 10 -15 6
-15 -5 -19 8 -16 44 1 12 -2 11 -13 -3 -8 -11 -17 -14 -20 -8 -4 5 -2 12 4 16
5 3 7 20 4 38 -4 30 -4 30 6 8 8 -19 13 -22 22 -13z m-67 1 c-4 -5 -1 -9 4 -9
6 0 11 6 11 13 0 6 5 4 11 -6 16 -27 -1 -39 -39 -28 -20 6 -32 6 -32 0 0 -5
12 -9 28 -10 15 0 21 -3 15 -6 -23 -9 -14 -25 10 -18 17 5 19 4 7 -4 -8 -6
-23 -11 -32 -11 -9 0 -21 -8 -27 -17 -5 -10 -13 -14 -17 -10 -5 5 -2 12 6 17
12 7 10 11 -10 19 -20 8 -21 10 -6 10 13 1 17 6 13 21 -5 18 4 25 26 21 5 -1
11 8 14 19 3 11 9 17 14 14 5 -3 7 -10 4 -15z m2778 1 c3 -11 1 -20 -4 -20 -5
0 -9 9 -9 20 0 11 2 20 4 20 2 0 6 -9 9 -20z m-1043 0 c0 -5 -5 -10 -11 -10
-5 0 -7 5 -4 10 3 6 8 10 11 10 2 0 4 -4 4 -10z m-1200 -25 c11 -13 10 -14 -4
-9 -9 3 -16 10 -16 15 0 13 6 11 20 -6z m1793 -4 c-4 -3 -11 -10 -15 -15 -4
-4 -6 1 -5 12 1 12 6 18 15 15 7 -3 10 -9 5 -12z m-1531 -10 c-14 -13 -20 -26
-16 -38 5 -15 4 -16 -6 -3 -9 12 -11 9 -6 -17 3 -19 1 -33 -4 -33 -15 0 -12
-16 5 -34 8 -8 15 -22 15 -31 0 -9 5 -13 10 -10 6 3 10 4 10 1 0 -2 3 -12 6
-21 6 -15 4 -15 -14 -4 -11 7 -23 21 -25 31 -4 12 -11 16 -24 12 -13 -4 -15
-3 -4 4 9 7 10 12 2 16 -8 5 -8 13 -1 26 5 10 10 31 10 47 0 35 25 73 48 73
14 -1 13 -4 -6 -19z m850 12 c-6 -2 -9 -9 -6 -14 3 -6 12 -5 22 2 16 12 16 11
1 -4 -19 -22 -56 -13 -38 9 6 8 17 14 23 13 7 0 6 -2 -2 -6z m-239 -18 c-3 -9
-8 -14 -10 -11 -3 3 -2 9 2 15 9 16 15 13 8 -4z m992 -26 c-10 -15 -25 -10
-19 6 4 8 10 12 15 9 5 -3 7 -10 4 -15z m385 11 c0 -5 -4 -10 -10 -10 -5 0
-10 5 -10 10 0 6 5 10 10 10 6 0 10 -4 10 -10z m-1400 -33 c0 -5 -4 -5 -10 -2
-5 3 -10 14 -10 23 0 15 2 15 10 2 5 -8 10 -19 10 -23z m27 -9 c-3 -7 -5 -2
-5 12 0 14 2 19 5 13 2 -7 2 -19 0 -25z m-878 3 c-1 -15 -18 -45 -18 -34 -1 6
-3 18 -6 26 -4 8 0 14 10 14 8 0 15 -3 14 -6z m998 -13 c-3 -8 -6 -5 -6 6 -1
11 2 17 5 13 3 -3 4 -12 1 -19z m880 5 c0 -8 -6 -9 -19 -2 -10 5 -18 11 -18
12 0 2 8 3 18 3 10 0 19 -6 19 -13z m-2003 -15 c-4 -6 1 -17 11 -25 15 -10 16
-16 7 -25 -15 -15 -16 -38 -1 -38 5 0 7 5 3 12 -4 6 -3 8 3 5 6 -4 11 -18 11
-32 0 -24 -2 -24 -15 -8 -13 17 -14 16 -7 -6 4 -18 3 -22 -7 -16 -9 6 -11 3
-6 -8 4 -10 2 -17 -4 -17 -6 0 -9 9 -6 20 3 13 0 20 -9 20 -12 0 -12 4 -4 20
6 11 7 20 3 20 -4 0 -9 20 -9 45 -1 38 1 45 18 45 12 0 16 -4 12 -12z m1375 9
c-2 -1 -13 -9 -24 -17 -19 -14 -19 -14 -6 3 7 9 18 17 24 17 6 0 8 -1 6 -3z
m-1107 -43 c-9 -16 -10 -14 -9 8 1 15 6 23 11 18 4 -4 4 -16 -2 -26z m2123 26
c3 -5 2 -10 -4 -10 -5 0 -13 5 -16 10 -3 6 -2 10 4 10 5 0 13 -4 16 -10z
m-2308 -9 c8 7 13 8 13 1 0 -12 -29 -24 -41 -16 -5 3 -9 10 -9 17 0 8 3 8 12
-1 8 -8 15 -9 25 -1z m-316 -35 c-7 -8 -20 -12 -29 -9 -15 6 -15 4 -4 -9 9
-11 10 -18 2 -23 -5 -3 -10 1 -10 9 0 10 -6 13 -15 10 -8 -4 -15 -2 -15 3 0
16 22 32 36 26 8 -3 17 2 20 12 5 11 10 13 17 6 7 -7 6 -15 -2 -25z m635 0 c1
-9 -2 -14 -7 -10 -5 3 -7 10 -4 15 4 5 -1 9 -9 9 -9 0 -16 5 -16 10 0 17 33
-5 36 -24z m1599 23 c11 -16 1 -19 -13 -3 -7 8 -8 14 -3 14 5 0 13 -5 16 -11z
m-891 -20 c-3 -5 -2 -16 3 -22 4 -7 0 -4 -9 6 -18 19 -15 43 3 31 5 -3 7 -10
3 -15z m262 9 c5 -7 3 -8 -6 -3 -10 6 -12 4 -7 -8 4 -11 2 -14 -9 -10 -17 6
-18 20 -1 26 6 3 13 6 14 6 1 1 5 -4 9 -11z m4024 -2 c-7 -7 -13 -7 -20 0 -6
6 -3 10 10 10 13 0 16 -4 10 -10z m-5850 -12 c0 -8 -4 -12 -10 -9 -5 3 -10 10
-10 16 0 5 5 9 10 9 6 0 10 -7 10 -16z m278 -7 c2 -9 -2 -17 -8 -17 -6 0 -8 5
-5 10 3 6 2 10 -4 10 -6 0 -17 -12 -24 -26 -10 -19 -16 -23 -22 -15 -8 14 33
63 49 58 6 -2 12 -11 14 -20z m272 2 c-7 -11 -14 -18 -17 -15 -8 8 5 36 17 36
7 0 7 -6 0 -21z m40 6 c0 -8 -2 -15 -4 -15 -2 0 -6 7 -10 15 -3 8 -1 15 4 15
6 0 10 -7 10 -15z m176 -18 c2 -20 -1 -24 -13 -20 -8 3 -19 0 -25 -8 -8 -11
-9 -10 -4 4 3 10 6 23 6 28 0 6 6 7 13 3 9 -6 9 -4 -1 8 -11 14 -11 16 4 14
10 -2 18 -13 20 -29z m964 29 c0 -3 -4 -8 -10 -11 -5 -3 -10 -1 -10 4 0 6 5
11 10 11 6 0 10 -2 10 -4z m668 -21 c-3 -3 -9 2 -12 12 -6 14 -5 15 5 6 7 -7
10 -15 7 -18z m-1883 6 c3 -5 1 -12 -5 -16 -5 -3 -10 1 -10 9 0 18 6 21 15 7z
m1945 -61 c0 -27 -3 -51 -7 -53 -5 -3 -8 21 -8 53 0 32 3 56 8 53 4 -2 7 -26
7 -53z m-730 14 c0 -3 -7 -1 -15 6 -8 7 -15 17 -15 22 0 5 7 3 15 -6 8 -8 15
-18 15 -22z m137 4 c-3 -8 -6 -5 -6 6 -1 11 2 17 5 13 3 -3 4 -12 1 -19z
m-1341 -40 c-5 -9 -16 -13 -25 -10 -12 4 -11 7 5 13 10 4 13 8 7 8 -7 1 -13
10 -13 21 0 19 1 19 18 3 13 -13 16 -22 8 -35z m5272 32 c-7 -10 -14 -17 -17
-15 -4 4 18 35 25 35 2 0 -1 -9 -8 -20z m-5538 6 c0 -3 -4 -8 -10 -11 -5 -3
-10 -1 -10 4 0 6 5 11 10 11 6 0 10 -2 10 -4z m1590 -41 c0 -8 7 -11 19 -8 10
3 21 1 24 -4 3 -4 -8 -8 -24 -9 -19 -1 -29 4 -29 13 0 8 -4 11 -10 8 -6 -3 -7
1 -4 9 7 18 24 12 24 -9z m1000 -7 c0 -26 -13 -16 -17 13 -2 12 1 18 7 14 5
-3 10 -16 10 -27z m-2290 3 c0 -5 -7 -12 -16 -15 -14 -5 -15 -4 -4 9 14 17 20
19 20 6z m300 -12 c0 -6 -4 -7 -10 -4 -5 3 -10 11 -10 16 0 6 5 7 10 4 6 -3
10 -11 10 -16z m800 -5 c0 -2 -9 -4 -21 -4 -11 0 -18 4 -14 10 5 8 35 3 35 -6z
m-203 -26 c-3 -8 -6 -5 -6 6 -1 11 2 17 5 13 3 -3 4 -12 1 -19z m4310 16 c-3
-3 -12 -4 -19 -1 -8 3 -5 6 6 6 11 1 17 -2 13 -5z m-4177 -14 c0 -5 -2 -10 -4
-10 -3 0 -8 5 -11 10 -3 6 -1 10 4 10 6 0 11 -4 11 -10z m107 -42 c-3 -7 -5
-2 -5 12 0 14 2 19 5 13 2 -7 2 -19 0 -25z m1168 2 c-2 -16 0 -32 6 -35 17
-11 9 -23 -16 -21 -24 1 -37 16 -14 16 5 0 7 5 4 10 -3 6 -3 16 2 23 4 6 8 15
9 20 3 14 4 17 8 17 3 0 3 -13 1 -30z m-1398 -5 c0 -8 -4 -12 -9 -9 -4 3 -8 9
-8 15 0 5 4 9 8 9 5 0 9 -7 9 -15z m505 -29 c6 -14 1 -11 -16 8 -14 16 -26 31
-26 34 0 10 32 -22 42 -42z m3734 -18 l-17 -23 5 30 c2 17 5 37 6 45 1 10 5 8
12 -7 8 -16 6 -27 -6 -45z m-3781 -18 c3 -5 1 -10 -4 -10 -6 0 -11 5 -11 10 0
6 2 10 4 10 3 0 8 -4 11 -10z m955 -10 c0 -5 -4 -10 -10 -10 -5 0 -10 5 -10
10 0 6 5 10 10 10 6 0 10 -4 10 -10z m-35 -19 c3 -5 2 -12 -3 -15 -5 -3 -9 1
-9 9 0 17 3 19 12 6z m2774 -72 c-13 -63 -41 -121 -75 -157 -21 -24 -24 -24
-30 -8 -5 12 -1 22 9 28 9 4 19 25 22 46 4 20 9 44 11 53 6 22 64 102 70 96 2
-2 -1 -28 -7 -58z m-2750 9 c-11 -21 -29 -33 -29 -19 0 6 5 11 11 11 7 0 9 10
5 26 -6 22 -5 24 8 12 9 -9 11 -18 5 -30z m-1222 0 c-3 -8 -6 -5 -6 6 -1 11 2
17 5 13 3 -3 4 -12 1 -19z m263 12 c0 -5 -5 -10 -11 -10 -5 0 -7 5 -4 10 3 6
8 10 11 10 2 0 4 -4 4 -10z m190 6 c0 -3 -4 -8 -10 -11 -5 -3 -10 -1 -10 4 0
6 5 11 10 11 6 0 10 -2 10 -4z m80 -62 c0 -2 -9 0 -20 6 -11 6 -20 13 -20 16
0 2 9 0 20 -6 11 -6 20 -13 20 -16z m700 6 c0 -5 -4 -10 -10 -10 -5 0 -10 5
-10 10 0 6 5 10 10 10 6 0 10 -4 10 -10z m40 -34 c0 -8 3 -23 7 -33 5 -14 2
-13 -14 5 -11 12 -25 22 -32 22 -6 0 -11 5 -11 10 0 6 11 10 25 10 15 0 25 -6
25 -14z m-838 -21 c3 -13 1 -22 -3 -19 -9 5 -13 44 -5 44 2 0 6 -11 8 -25z
m-385 -7 c-3 -8 -6 -5 -6 6 -1 11 2 17 5 13 3 -3 4 -12 1 -19z m1165 -10 c-7
-7 -12 -8 -12 -2 0 6 3 14 7 17 3 4 9 5 12 2 2 -3 -1 -11 -7 -17z m-532 -16
c-11 -2 -20 -8 -20 -14 0 -6 -3 -8 -7 -5 -3 4 2 15 13 26 13 12 21 15 26 7 5
-7 -1 -12 -12 -14z m-455 -12 c3 -5 1 -10 -4 -10 -6 0 -11 5 -11 10 0 6 2 10
4 10 3 0 8 -4 11 -10z m1053 -2 c-1 -7 4 -30 11 -51 7 -20 11 -43 8 -50 -5
-13 -32 69 -30 91 1 8 -5 11 -14 8 -8 -3 -18 -6 -21 -6 -4 0 0 -4 8 -10 8 -5
11 -12 8 -15 -4 -4 -13 -1 -21 6 -13 12 -12 16 7 26 28 16 48 16 44 1z m-713
-7 c3 -5 2 -12 -3 -15 -5 -3 -9 1 -9 9 0 17 3 19 12 6z m126 -33 c-2 -24 -6
-36 -9 -28 -2 8 -10 21 -16 29 -9 12 -8 13 3 6 11 -6 13 -4 8 8 -3 9 -1 18 6
21 7 2 12 5 12 5 0 1 -1 -18 -4 -41z m-621 7 c0 -8 -2 -15 -4 -15 -2 0 -6 7
-10 15 -3 8 -1 15 4 15 6 0 10 -7 10 -15z m494 -21 c3 -8 2 -12 -4 -9 -6 3
-10 10 -10 16 0 14 7 11 14 -7z m-131 -54 c-7 -8 -22 24 -16 34 4 5 10 1 13
-10 4 -10 6 -21 3 -24z m-133 -31 c0 -5 -4 -9 -8 -9 -5 0 -9 7 -9 15 0 8 4 12
9 9 4 -3 8 -9 8 -15z m140 -4 c7 -9 8 -15 2 -15 -5 0 -12 7 -16 15 -3 8 -4 15
-2 15 2 0 9 -7 16 -15z m-13 -62 c-3 -10 -5 -4 -5 12 0 17 2 24 5 18 2 -7 2
-21 0 -30z m-131 -101 c26 -62 43 -123 37 -138 -6 -17 -23 -19 -23 -2 0 6 -3
9 -6 5 -8 -7 -34 17 -34 32 0 6 -6 11 -12 11 -8 0 -9 3 -3 8 6 4 10 16 9 27 0
11 4 26 10 33 5 7 5 12 0 10 -11 -4 -14 4 -14 38 0 33 16 22 36 -24z m161 42
c-3 -3 -12 -4 -19 -1 -8 3 -5 6 6 6 11 1 17 -2 13 -5z m8 -24 c3 -5 1 -10 -4
-10 -6 0 -11 5 -11 10 0 6 2 10 4 10 3 0 8 -4 11 -10z m185 6 c0 -3 -4 -8 -10
-11 -5 -3 -10 -1 -10 4 0 6 5 11 10 11 6 0 10 -2 10 -4z m-202 -104 c27 -71
27 -76 2 -69 -11 3 -20 0 -20 -6 0 -8 -4 -7 -9 2 -5 7 -14 10 -20 7 -12 -8
-17 115 -5 127 14 13 30 -7 52 -61z m152 -112 c0 -11 -4 -20 -9 -20 -5 0 -7 9
-4 20 3 11 7 20 9 20 2 0 4 -9 4 -20z m5477 -275 c8 -126 12 -278 12 -495 0
-129 0 -318 0 -420 1 -102 0 -237 0 -300 0 -63 0 -187 0 -275 0 -88 0 -376 0
-640 -1 -264 0 -499 0 -523 2 -52 -5 -67 -25 -51 -8 6 -14 8 -14 3 0 -5 -248
-9 -560 -9 -367 0 -560 -3 -560 -10 0 -6 -3 -6 -8 0 -9 14 -62 18 -62 5 0 -6
-9 -6 -25 0 -17 6 -25 6 -25 -1 0 -6 -4 -8 -10 -4 -8 5 -242 10 -265 5 -5 -1
-12 -1 -15 0 -15 7 -218 5 -232 -2 -11 -5 -18 -5 -18 1 0 5 -20 7 -45 6 -25
-2 -47 1 -50 5 -3 5 -16 6 -28 2 -12 -4 -44 -6 -72 -5 -81 4 -169 3 -187 -3
-10 -3 -18 -1 -18 5 0 6 -6 8 -13 5 -27 -10 -66 14 -75 48 -5 18 -6 38 -3 43
8 15 7 39 -2 46 -4 3 -3 17 2 31 6 17 6 29 0 35 -6 6 -11 24 -11 42 -1 17 -3
29 -5 27 -3 -2 -6 -62 -7 -133 -2 -130 -8 -154 -44 -186 -19 -18 -20 -18 -20
5 0 13 -3 84 -6 158 -2 74 -5 173 -5 220 -2 1046 -1 1163 5 1780 4 499 4 480
16 480 4 0 17 14 27 31 23 38 28 30 26 -41 -1 -30 2 -72 6 -92 3 -21 3 -38 -1
-38 -4 0 -5 -11 -2 -25 9 -49 17 -15 17 74 0 50 3 91 6 91 3 0 6 7 6 15 0 8
-3 15 -7 15 -10 0 -8 33 3 48 6 8 6 12 -2 12 -13 0 -6 35 10 56 7 8 326 11
1146 10 l1137 -1 3 -50z m-6887 -115 c0 -5 -5 -10 -11 -10 -5 0 -7 5 -4 10 3
6 8 10 11 10 2 0 4 -4 4 -10z m0 -56 c0 -8 -4 -12 -10 -9 -5 3 -10 13 -10 21
0 8 5 12 10 9 6 -3 10 -13 10 -21z m-9 -67 c-8 -8 -11 -3 -11 19 1 25 2 27 11
11 8 -14 8 -22 0 -30z m3 -52 c-4 -8 -8 -15 -10 -15 -2 0 -4 7 -4 15 0 8 4 15
10 15 5 0 7 -7 4 -15z m62 -70 c-3 -8 0 -15 6 -15 6 0 3 -8 -6 -19 -11 -12
-25 -17 -39 -13 -22 6 -21 6 3 13 14 4 19 7 11 8 -11 1 -10 6 4 21 22 24 29
26 21 5z m-146 -55 c0 -5 -4 -10 -10 -10 -5 0 -10 5 -10 10 0 6 5 10 10 10 6
0 10 -4 10 -10z m94 -11 c20 3 26 0 21 -9 -4 -6 -11 -8 -16 -5 -5 4 -9 -1 -9
-10 0 -9 5 -13 10 -10 6 3 10 1 10 -4 0 -6 -5 -11 -11 -11 -5 0 -8 -4 -4 -10
3 -5 -3 -18 -14 -29 -11 -11 -25 -29 -31 -41 -6 -12 -17 -19 -25 -17 -7 3 -12
-1 -11 -11 0 -9 -5 -17 -11 -18 -7 -1 -19 -2 -25 -3 -9 -1 -9 -4 2 -12 12 -8
11 -10 -5 -7 -11 2 -20 8 -20 13 0 6 -4 17 -10 25 -7 13 -6 13 8 2 9 -8 21
-11 27 -7 10 6 6 53 -6 64 -4 3 -4 -2 -1 -11 4 -10 2 -18 -3 -18 -6 0 -10 9
-10 20 0 24 13 26 30 5 15 -18 34 -20 25 -2 -4 6 0 3 9 -7 15 -19 16 -18 25 5
12 31 -3 48 -47 51 -17 1 -32 6 -32 9 0 4 16 5 35 2 31 -5 35 -3 35 15 0 27
30 58 40 42 4 -6 10 -11 14 -11z m-74 -9 c0 -5 -5 -10 -11 -10 -5 0 -7 5 -4
10 3 6 8 10 11 10 2 0 4 -4 4 -10z m-160 -47 c0 -32 -5 -28 -14 10 -4 19 -3
26 4 22 5 -3 10 -18 10 -32z m87 12 c0 -8 -4 -15 -9 -15 -10 0 -11 14 -1 23 9
10 10 9 10 -8z m-17 -30 c0 -11 -29 -11 -33 -1 -4 10 1 12 14 9 10 -3 19 -7
19 -8z m73 -2 c-7 -2 -21 -2 -30 0 -10 3 -4 5 12 5 17 0 24 -2 18 -5z m-121
-49 c-5 -29 -7 -28 -16 8 -5 21 -3 26 7 22 9 -3 12 -14 9 -30z m-23 -16 c-1
-18 -2 -19 -6 -5 -2 9 -9 14 -15 11 -7 -4 -8 -2 -4 4 12 20 26 13 25 -10z
m121 -8 c0 -5 -2 -10 -4 -10 -3 0 -8 5 -11 10 -3 6 -1 10 4 10 6 0 11 -4 11
-10z m-147 -35 c-3 -9 -8 -14 -10 -11 -3 3 -2 9 2 15 9 16 15 13 8 -4z m24
-47 c-3 -7 -5 -2 -5 12 0 14 2 19 5 13 2 -7 2 -19 0 -25z m118 12 c3 -5 -1
-10 -9 -10 -9 0 -16 -6 -16 -13 0 -8 -8 -21 -18 -30 -16 -15 -19 -15 -30 3 -7
12 -8 20 -2 20 5 0 10 -4 10 -10 0 -22 22 -8 31 20 11 31 23 38 34 20z m-61
-91 c-3 -5 -14 -14 -26 -20 -15 -8 -19 -8 -14 0 4 6 0 11 -8 11 -9 0 -16 5
-16 10 0 7 6 7 19 0 28 -14 30 -13 23 13 -5 19 -4 20 11 8 9 -7 14 -17 11 -22z
m-83 -12 c-10 -9 -11 -8 -5 6 3 10 9 15 12 12 3 -3 0 -11 -7 -18z m-1271
-2997 c13 -8 13 -10 -2 -10 -9 0 -20 5 -23 10 -8 13 5 13 25 0z"/>
<path d="M6780 8936 c0 -8 15 -23 33 -32 38 -19 63 -47 83 -91 8 -18 20 -33
27 -33 23 -1 -18 -17 -58 -23 -24 -4 -32 -3 -21 1 18 8 18 9 3 15 -9 3 -17 13
-17 21 0 10 -6 13 -15 10 -9 -4 -15 0 -15 9 0 14 -26 32 -42 29 -4 -1 -5 5 -2
12 4 11 -1 14 -20 12 -14 -2 -24 0 -21 4 2 4 -14 7 -37 8 -23 1 -44 4 -46 7
-3 3 -11 0 -19 -6 -7 -6 -13 -9 -13 -7 0 3 -24 0 -54 -7 -37 -9 -69 -10 -102
-4 -44 8 -179 5 -214 -6 -8 -3 -37 -7 -65 -10 -66 -7 -248 -60 -253 -74 -2 -6
-16 -11 -30 -12 l-27 -1 29 -8 c22 -7 41 -4 75 10 42 18 101 33 172 45 15 2
45 8 67 13 23 6 110 9 194 7 132 -2 164 -6 234 -28 45 -14 90 -30 100 -35 11
-6 60 -29 109 -52 50 -23 101 -53 114 -67 16 -16 27 -21 33 -15 6 6 17 8 26 4
11 -4 14 -1 9 12 -4 9 -3 15 2 11 5 -3 17 2 25 11 9 8 16 12 16 7 0 -4 25 -6
56 -5 36 3 54 8 51 15 -2 7 -8 12 -13 13 -5 0 -17 4 -26 8 -10 5 -25 5 -34 2
-9 -4 -23 -1 -30 5 -12 10 -13 8 -8 -6 6 -15 3 -17 -19 -13 -27 5 -38 -6 -14
-15 7 -4 6 -6 -5 -6 -9 -1 -19 -7 -22 -13 -3 -7 -3 -1 0 15 5 20 2 27 -10 27
-13 0 -14 5 -6 26 14 36 14 36 -32 95 -48 61 -44 57 -115 100 -41 24 -53 27
-53 15z m-46 -101 c-4 -8 -11 -15 -16 -15 -6 0 -5 6 2 15 7 8 14 15 16 15 2 0
1 -7 -2 -15z m216 -98 c9 -3 4 -6 -12 -6 -21 -1 -26 3 -21 15 3 9 9 11 12 6 3
-5 13 -12 21 -15z"/>
<path d="M6429 8698 c-11 -5 -30 -10 -42 -12 -12 -2 -41 -11 -64 -19 -22 -9
-44 -13 -47 -10 -3 4 -6 1 -6 -5 0 -6 -6 -9 -13 -6 -8 3 -20 -2 -27 -11 -7 -8
-21 -15 -31 -15 -11 0 -19 -4 -19 -10 0 -5 -7 -10 -15 -10 -7 0 -19 -8 -24
-17 -6 -10 -11 -13 -11 -6 0 6 -9 9 -20 6 -16 -4 -18 -8 -9 -20 10 -11 9 -13
-2 -11 -8 2 -13 -2 -12 -8 1 -7 -10 -14 -25 -17 l-27 -5 23 15 c33 23 27 37
-8 16 -16 -9 -30 -21 -30 -26 0 -4 -4 -5 -10 -2 -5 3 -10 1 -10 -4 0 -6 8 -11
18 -12 11 0 12 -2 4 -6 -7 -3 -19 1 -27 7 -9 7 -15 8 -15 2 0 -5 -11 -13 -25
-16 -14 -4 -32 -17 -41 -31 -9 -14 -21 -22 -28 -18 -6 3 -3 -3 7 -14 9 -11 17
-24 17 -29 0 -5 -7 0 -15 10 -14 19 -15 19 -38 -6 -12 -13 -29 -22 -36 -20 -8
3 -11 0 -7 -6 3 -6 -3 -13 -14 -17 -11 -3 -20 -12 -20 -20 0 -7 -9 -15 -20
-18 -11 -3 -20 -12 -20 -21 0 -9 -6 -16 -13 -16 -7 0 -20 -13 -30 -29 -21 -36
-21 -45 -2 -37 8 3 15 3 15 0 0 -3 -13 -9 -28 -15 -20 -7 -28 -16 -28 -32 1
-16 -4 -21 -17 -19 -22 4 -57 -33 -57 -60 0 -10 -4 -18 -10 -18 -15 0 -47 -35
-43 -47 2 -6 -1 -15 -8 -19 -8 -5 -10 -3 -4 7 8 12 6 12 -8 0 -9 -7 -14 -17
-11 -22 3 -5 0 -9 -6 -9 -6 0 -8 -4 -5 -10 3 -5 2 -10 -3 -10 -10 0 -55 -81
-67 -117 -3 -13 -2 -23 2 -23 10 0 60 49 93 90 84 104 316 342 415 425 33 28
62 53 63 58 2 4 8 7 14 7 6 0 18 8 27 18 19 22 122 92 135 92 5 0 24 11 43 26
18 14 33 22 33 19 0 -3 17 5 38 18 66 41 208 88 301 99 14 2 26 9 29 16 3 11
-13 13 -77 10 -45 -2 -91 -6 -102 -10z m-416 -215 c-7 -2 -19 -2 -25 0 -7 3
-2 5 12 5 14 0 19 -2 13 -5z m-73 -33 c0 -5 -5 -10 -11 -10 -5 0 -7 5 -4 10 3
6 8 10 11 10 2 0 4 -4 4 -10z m-62 -64 c-7 -8 -15 -12 -17 -11 -5 6 10 25 20
25 5 0 4 -6 -3 -14z m-53 -46 c3 -6 -4 -10 -17 -10 -18 0 -20 2 -8 10 19 12
18 12 25 0z m-67 -86 c-14 -14 -16 -14 -20 4 -4 16 -2 19 10 15 11 -5 13 -3 7
8 -6 11 -5 12 6 1 11 -10 11 -15 -3 -28z"/>
<path d="M7224 8599 l-29 -19 44 0 c43 0 161 -45 161 -61 0 -4 8 -10 18 -14
23 -7 91 -71 127 -119 72 -94 106 -143 122 -173 9 -18 20 -33 24 -33 4 0 9 -9
12 -20 6 -25 26 -26 26 -2 0 9 1 28 3 42 2 19 -1 25 -14 24 -10 -1 -18 4 -18
11 0 19 -81 120 -168 209 -100 103 -174 151 -263 171 -9 2 -29 -5 -45 -16z"/>
<path d="M7746 8155 c3 -16 0 -25 -8 -25 -10 0 -10 -2 0 -9 7 -4 12 -12 11
-17 -4 -21 2 -28 11 -14 8 13 10 12 10 -2 0 -10 5 -18 10 -18 17 0 11 -18 -7
-23 -17 -4 -17 -5 0 -6 10 -1 17 -9 17 -22 0 -12 8 -29 19 -38 10 -9 19 -29
19 -44 0 -15 8 -35 18 -43 11 -9 12 -12 4 -8 -12 7 -11 3 3 -19 9 -14 17 -37
17 -51 0 -14 5 -28 10 -31 6 -3 10 -17 10 -31 0 -14 4 -23 9 -19 10 6 8 51 -2
62 -10 10 -8 55 2 49 5 -3 0 11 -10 32 -11 20 -17 43 -14 51 3 8 -5 25 -17 39
-13 14 -17 22 -10 18 6 -4 12 -2 12 3 0 15 -27 14 -33 -1 -3 -7 -5 1 -4 17 0
17 -6 42 -14 55 -7 14 -12 31 -11 38 2 6 -2 12 -8 12 -6 0 -8 5 -4 11 4 8 -1
9 -17 4 -22 -7 -22 -7 -6 9 21 22 22 27 0 19 -10 -4 -14 -2 -9 5 3 6 2 13 -3
17 -6 3 -8 -5 -5 -20z"/>
<path d="M7905 7710 c3 -5 8 -10 11 -10 2 0 4 5 4 10 0 6 -5 10 -11 10 -5 0
-7 -4 -4 -10z"/>
<path d="M3956 7125 c-3 -8 -2 -15 3 -15 5 0 14 7 21 15 10 12 10 15 -3 15 -8
0 -17 -7 -21 -15z"/>
<path d="M4015 6920 c-3 -5 -1 -10 4 -10 6 0 11 5 11 10 0 6 -2 10 -4 10 -3 0
-8 -4 -11 -10z"/>
<path d="M7579 6853 c-1 -10 0 -22 1 -28 3 -14 1 -260 -2 -322 -2 -29 0 -53 5
-53 5 0 7 -7 3 -15 -3 -8 1 -31 9 -52 7 -21 14 -32 14 -25 1 7 4 11 9 8 8 -5
6 69 -3 83 -3 5 1 12 7 14 10 4 10 6 0 6 -8 1 -10 6 -6 13 11 17 5 79 -8 95
-8 10 -6 13 8 13 15 0 16 2 5 9 -7 5 -11 13 -7 19 3 6 2 13 -4 17 -5 3 -10 11
-10 16 0 6 4 8 9 5 5 -4 7 3 4 14 -3 11 -10 17 -17 14 -6 -3 -4 1 6 8 12 10
14 19 7 31 -6 9 -7 22 -4 27 3 6 2 10 -2 10 -5 0 -8 25 -6 55 1 30 -2 55 -7
55 -6 0 -11 -8 -11 -17z m27 -310 c-10 -10 -19 5 -10 18 6 11 8 11 12 0 2 -7
1 -15 -2 -18z m7 -118 c4 -8 2 -17 -3 -20 -6 -4 -10 3 -10 14 0 25 6 27 13 6z"/>
<path d="M5030 6701 c0 -6 4 -12 8 -15 5 -3 9 1 9 9 0 8 -4 15 -9 15 -4 0 -8
-4 -8 -9z"/>
<path d="M5027 6659 c4 -13 8 -18 11 -10 2 7 -1 18 -6 23 -8 8 -9 4 -5 -13z"/>
<path d="M5005 6608 c-2 -7 -9 -31 -17 -53 -7 -22 -13 -44 -13 -50 0 -5 -4
-13 -10 -17 -6 -5 -4 -8 4 -8 11 0 10 -4 -4 -20 -9 -10 -15 -26 -12 -35 4 -8
2 -15 -4 -15 -6 0 -8 -13 -5 -31 5 -33 21 -57 32 -47 8 8 16 54 18 101 0 20 4
37 7 37 3 0 6 7 6 15 0 8 -4 15 -9 15 -4 0 -8 7 -8 15 0 8 5 15 11 15 5 0 7
-5 3 -12 -4 -6 -3 -8 3 -5 6 4 9 27 6 54 -3 36 -2 44 6 33 9 -13 11 -13 11 3
0 20 -19 23 -25 5z"/>
<path d="M4111 6534 c0 -11 3 -14 6 -6 3 7 2 16 -1 19 -3 4 -6 -2 -5 -13z"/>
<path d="M6470 6516 c0 -14 36 -46 52 -46 17 0 7 30 -14 44 -28 20 -38 20 -38
2z"/>
<path d="M5966 6402 c-6 -10 118 -102 137 -102 17 0 -61 73 -100 94 -18 9 -34
12 -37 8z"/>
<path d="M7172 6391 c-19 -16 -20 -20 -6 -25 19 -7 57 11 51 27 -6 19 -22 18
-45 -2z"/>
<path d="M4927 6330 c3 -11 9 -20 14 -20 5 0 6 -7 2 -16 -5 -13 -7 -13 -14 -2
-7 11 -11 10 -18 -2 -8 -11 -3 -17 21 -27 40 -17 41 -17 34 11 -4 15 -1 27 7
30 9 5 9 7 -1 12 -7 3 -19 12 -26 20 -20 19 -25 18 -19 -6z"/>
<path d="M4547 6296 c-4 -10 -5 -21 -2 -24 9 -9 17 6 13 25 -3 17 -4 17 -11
-1z"/>
<path d="M7169 6115 c-3 -2 -14 -6 -25 -8 -37 -8 -68 -24 -57 -30 6 -4 19 0
27 9 11 11 16 12 16 3 0 -10 3 -10 12 -1 7 7 20 12 29 12 10 0 21 5 24 10 6
10 -17 14 -26 5z"/>
<path d="M4164 5732 c-10 -7 -38 -68 -40 -87 0 -5 -4 -17 -7 -25 -16 -37 -23
-97 -14 -127 8 -24 25 -40 76 -70 36 -21 85 -58 108 -82 24 -25 46 -41 50 -38
17 17 -70 121 -112 133 -45 12 -63 28 -76 66 -11 34 -11 49 3 97 8 31 22 71
29 88 14 34 4 59 -17 45z"/>
<path d="M6766 5142 c-3 -6 -2 -32 4 -57 6 -25 8 -50 6 -54 -3 -4 -8 -22 -11
-40 l-6 -32 27 26 c24 24 26 31 19 80 -7 56 -27 96 -39 77z"/>
<path d="M6155 4473 c-80 -19 -124 -42 -125 -65 0 -24 143 -74 240 -84 25 -3
50 -7 56 -9 17 -5 34 9 25 23 -4 7 -18 15 -32 17 -13 3 -25 9 -27 15 -2 5 -8
10 -13 10 -6 0 -8 -4 -5 -8 7 -12 -36 -12 -51 0 -7 6 -22 8 -34 5 -15 -4 -19
-2 -15 9 3 8 1 14 -3 14 -5 0 -11 -4 -13 -9 -1 -5 -19 -1 -38 9 -30 16 -32 19
-12 20 12 0 22 6 22 13 0 8 4 7 10 -3 6 -10 10 -11 10 -2 0 7 15 12 41 12 32
0 40 -3 36 -15 -4 -8 -2 -17 4 -20 5 -4 9 -3 8 2 -5 29 3 40 30 41 24 0 32 -5
40 -26 l9 -27 1 27 c1 25 3 26 49 21 26 -3 48 -9 50 -13 2 -5 19 -19 38 -30
19 -12 34 -28 34 -35 0 -16 -42 -27 -67 -18 -17 6 -17 6 -1 -10 23 -24 83 -25
108 -2 24 22 27 77 4 99 -8 9 -18 16 -22 17 -4 0 -14 2 -22 4 -90 22 -275 32
-335 18z"/>
<path d="M6253 4404 c0 -17 2 -22 7 -13 5 6 6 18 3 26 -8 19 -10 16 -10 -13z"/>
<path d="M6366 4405 c-9 -26 -7 -32 5 -12 6 10 9 21 6 23 -2 3 -7 -2 -11 -11z"/>
<path d="M6390 4395 c0 -8 8 -15 18 -14 10 0 12 3 4 6 -6 2 -10 9 -6 14 3 5 0
9 -5 9 -6 0 -11 -7 -11 -15z"/>
<path d="M6391 4354 c0 -11 3 -14 6 -6 3 7 2 16 -1 19 -3 4 -6 -2 -5 -13z"/>
<path d="M2225 6381 c-3 -5 -1 -12 5 -16 5 -3 10 1 10 9 0 18 -6 21 -15 7z"/>
<path d="M2200 6251 c0 -6 4 -13 10 -16 6 -3 7 1 4 9 -7 18 -14 21 -14 7z"/>
<path d="M2140 6230 c6 -11 13 -20 16 -20 2 0 0 9 -6 20 -6 11 -13 20 -16 20
-2 0 0 -9 6 -20z"/>
<path d="M2225 6220 c-3 -5 1 -10 10 -10 9 0 13 5 10 10 -3 6 -8 10 -10 10 -2
0 -7 -4 -10 -10z"/>
<path d="M2231 6178 c-14 -23 -14 -23 8 -4 22 20 25 26 13 26 -4 0 -13 -10
-21 -22z"/>
<path d="M2196 6163 c-6 -14 -5 -15 5 -6 7 7 10 15 7 18 -3 3 -9 -2 -12 -12z"/>
<path d="M2126 6137 c3 -10 9 -15 12 -12 3 3 0 11 -7 18 -10 9 -11 8 -5 -6z"/>
<path d="M2105 6120 c3 -5 8 -10 11 -10 2 0 4 5 4 10 0 6 -5 10 -11 10 -5 0
-7 -4 -4 -10z"/>
<path d="M2130 6090 c0 -5 5 -10 11 -10 5 0 7 5 4 10 -3 6 -8 10 -11 10 -2 0
-4 -4 -4 -10z"/>
<path d="M2660 6854 c0 -10 31 -36 37 -31 10 10 -6 37 -22 37 -8 0 -15 -3 -15
-6z"/>
<path d="M2620 6346 c0 -2 7 -7 16 -10 8 -3 12 -2 9 4 -6 10 -25 14 -25 6z"/>
<path d="M2500 6215 c0 -2 6 -8 13 -14 10 -8 14 -7 14 2 0 8 -6 14 -14 14 -7
0 -13 -1 -13 -2z"/>
<path d="M2616 6157 c3 -10 9 -15 12 -12 3 3 0 11 -7 18 -10 9 -11 8 -5 -6z"/>
<path d="M2500 6070 c-9 -6 -10 -10 -3 -10 6 0 15 5 18 10 8 12 4 12 -15 0z"/>
<path d="M2540 6040 c0 -5 5 -10 11 -10 5 0 7 5 4 10 -3 6 -8 10 -11 10 -2 0
-4 -4 -4 -10z"/>
<path d="M2519 5958 c0 -22 -1 -22 -9 -3 -6 15 -8 12 -7 -16 2 -30 5 -35 21
-31 20 5 20 5 0 13 -10 4 -13 8 -6 8 6 1 12 11 12 24 0 16 3 18 9 8 5 -8 11
-9 15 -3 3 5 -1 13 -10 16 -23 9 -24 8 -25 -16z"/>
<path d="M2591 5924 c0 -11 3 -14 6 -6 3 7 2 16 -1 19 -3 4 -6 -2 -5 -13z"/>
<path d="M2520 5893 c0 -7 -6 -13 -13 -13 -8 0 -14 -7 -14 -15 0 -8 5 -11 10
-8 5 3 12 2 16 -3 18 -26 81 -36 81 -13 0 6 -4 8 -9 4 -5 -3 -17 2 -25 11 -9
8 -16 11 -16 5 0 -6 -5 -11 -11 -11 -5 0 -7 4 -4 10 3 5 1 18 -4 27 -6 10 -11
12 -11 6z"/>
<path d="M2575 5870 c4 -6 11 -8 16 -5 14 9 11 15 -7 15 -8 0 -12 -5 -9 -10z"/>
<path d="M2760 5859 c0 -5 5 -7 10 -4 6 3 10 8 10 11 0 2 -4 4 -10 4 -5 0 -10
-5 -10 -11z"/>
<path d="M2803 5863 c9 -2 23 -2 30 0 6 3 -1 5 -18 5 -16 0 -22 -2 -12 -5z"/>
<path d="M2801 5833 c-9 -16 -12 -16 -20 -3 -6 8 -13 11 -17 7 -4 -3 -1 -14 7
-23 11 -14 11 -18 -2 -28 -9 -6 -14 -17 -11 -25 2 -7 -1 -17 -8 -21 -9 -5 -9
-9 -1 -14 6 -4 11 -2 11 5 0 7 10 9 25 7 21 -4 23 -2 15 13 -12 22 -13 59 -1
59 5 0 11 9 14 20 6 25 1 26 -12 3z m-16 -73 c3 -5 1 -10 -4 -10 -6 0 -11 5
-11 10 0 6 2 10 4 10 3 0 8 -4 11 -10z"/>
<path d="M2826 5834 c-5 -14 -4 -15 9 -4 17 14 19 20 6 20 -5 0 -12 -7 -15
-16z"/>
<path d="M2530 5819 c0 -5 -6 -7 -12 -3 -7 4 -5 -2 5 -13 23 -26 22 -49 -4
-56 -18 -5 -19 -8 -8 -20 12 -13 15 -13 17 -1 2 8 8 14 13 14 21 0 3 -33 -23
-43 -12 -4 -15 -2 -11 9 4 10 0 12 -12 8 -11 -5 -13 -10 -6 -17 6 -6 11 -22
11 -35 0 -13 4 -21 10 -17 5 3 7 12 4 19 -3 7 3 16 12 20 24 9 29 0 10 -19
-19 -19 -21 -39 -3 -30 6 4 3 -1 -7 -9 -19 -16 -19 -16 5 -16 13 0 31 5 39 11
12 9 12 10 -4 5 -13 -5 -10 3 12 26 32 31 37 52 7 28 -20 -16 -19 -6 1 14 14
15 14 16 0 16 -9 0 -16 -5 -16 -12 0 -9 -3 -9 -12 0 -10 10 -10 15 1 21 9 6
10 11 2 15 -23 15 -10 24 20 14 16 -6 33 -8 36 -4 4 3 -2 6 -13 6 -14 0 -16 2
-6 9 8 4 13 11 13 15 -2 16 0 18 14 6 9 -7 15 -8 15 -2 0 5 -7 13 -16 16 -8 3
-12 10 -9 16 3 5 1 10 -4 10 -6 0 -11 -7 -11 -15 0 -8 -5 -15 -11 -15 -5 0 -8
4 -5 9 4 5 -3 7 -14 4 -14 -4 -20 0 -20 11 0 9 -4 16 -10 16 -5 0 -10 -5 -10
-11z m52 -44 c0 -5 -5 -11 -11 -13 -6 -2 -11 4 -11 13 0 9 5 15 11 13 6 -2 11
-8 11 -13z"/>
<path d="M2810 5790 c-6 -11 -7 -20 -2 -20 6 0 12 9 15 20 3 11 3 20 1 20 -2
0 -8 -9 -14 -20z"/>
<path d="M2750 5699 c0 -5 5 -7 10 -4 6 3 10 8 10 11 0 2 -4 4 -10 4 -5 0 -10
-5 -10 -11z"/>
<path d="M2770 5671 c0 -12 -4 -21 -10 -21 -5 0 -10 -5 -10 -11 0 -5 5 -7 11
-3 8 4 9 -1 4 -17 -7 -21 -6 -21 7 -8 17 16 21 66 7 75 -5 3 -9 -4 -9 -15z"/>
<path d="M2861 5404 c0 -11 3 -14 6 -6 3 7 2 16 -1 19 -3 4 -6 -2 -5 -13z"/>
<path d="M2778 5393 c6 -2 12 -9 12 -14 0 -6 -4 -7 -10 -4 -5 3 -10 2 -10 -3
0 -6 7 -13 16 -16 22 -9 26 -8 19 5 -4 6 1 17 11 24 17 13 16 14 -16 14 -19 0
-29 -3 -22 -6z"/>
<path d="M2890 5990 c-9 -6 -10 -10 -3 -10 6 0 15 5 18 10 8 12 4 12 -15 0z"/>
<path d="M2880 5950 c0 -5 6 -10 13 -10 8 0 7 -4 -3 -10 -8 -5 -10 -10 -4 -10
16 0 23 10 17 26 -6 16 -23 19 -23 4z"/>
<path d="M2870 5901 c0 -6 5 -13 10 -16 6 -3 10 1 10 9 0 9 -4 16 -10 16 -5 0
-10 -4 -10 -9z"/>
<path d="M3185 5290 c-3 -5 1 -10 10 -10 9 0 13 5 10 10 -3 6 -8 10 -10 10 -2
0 -7 -4 -10 -10z"/>
<path d="M1755 5740 c-3 -6 1 -7 9 -4 18 7 21 14 7 14 -6 0 -13 -4 -16 -10z"/>
<path d="M1720 5711 c0 -6 4 -13 10 -16 6 -3 7 1 4 9 -7 18 -14 21 -14 7z"/>
<path d="M1770 5694 c0 -8 5 -12 10 -9 6 3 10 10 10 16 0 5 -4 9 -10 9 -5 0
-10 -7 -10 -16z"/>
<path d="M1799 5700 c0 -3 -2 -13 -4 -22 -2 -10 1 -18 5 -18 15 0 19 15 9 30
-5 8 -9 13 -10 10z"/>
<path d="M1640 5680 c0 -5 5 -10 11 -10 5 0 7 5 4 10 -3 6 -8 10 -11 10 -2 0
-4 -4 -4 -10z"/>
<path d="M1728 5643 c7 -3 16 -2 19 1 4 3 -2 6 -13 5 -11 0 -14 -3 -6 -6z"/>
<path d="M1680 5632 c0 -7 -6 -12 -14 -12 -8 0 -18 -4 -21 -10 -9 -15 8 -12
31 4 10 8 16 18 11 22 -4 4 -7 2 -7 -4z"/>
<path d="M1685 5589 c-4 -6 -5 -12 -2 -15 2 -3 7 2 10 11 7 17 1 20 -8 4z"/>
<path d="M2208 5633 c7 -3 16 -2 19 1 4 3 -2 6 -13 5 -11 0 -14 -3 -6 -6z"/>
<path d="M2229 5572 c-3 -20 -2 -29 4 -23 5 5 7 19 5 32 -3 20 -5 19 -9 -9z"/>
<path d="M2250 5559 c0 -11 4 -18 10 -14 5 3 7 12 3 20 -7 21 -13 19 -13 -6z"/>
<path d="M2280 5550 c0 -11 4 -20 9 -20 5 0 7 9 4 20 -3 11 -7 20 -9 20 -2 0
-4 -9 -4 -20z"/>
<path d="M7459 3925 c-5 -32 0 -80 9 -83 8 -2 11 8 10 32 -2 20 -7 36 -11 36
-5 0 -5 5 -2 10 3 6 4 10 1 10 -3 0 -6 -2 -7 -5z"/>
<path d="M7457 3824 c-7 -8 3 -34 13 -34 9 0 8 26 -1 35 -3 3 -8 2 -12 -1z"/>
<path d="M7460 3759 c0 -5 5 -7 10 -4 6 3 10 8 10 11 0 2 -4 4 -10 4 -5 0 -10
-5 -10 -11z"/>
<path d="M7458 3734 c-8 -7 2 -87 12 -97 4 -5 7 14 5 43 -3 52 -7 65 -17 54z"/>
<path d="M7450 3619 c0 -5 9 -9 20 -9 11 0 20 2 20 4 0 2 -9 6 -20 9 -11 3
-20 1 -20 -4z"/>
<path d="M7469 3578 c-4 -46 -9 -85 -13 -99 -2 -12 2 -15 15 -12 14 4 16 10 9
28 -5 13 -7 39 -4 59 2 20 2 36 -1 36 -3 0 -6 -6 -6 -12z"/>
<path d="M7457 3358 c1 -29 2 -59 2 -65 1 -7 5 -13 10 -13 8 0 9 32 3 108 -4
46 -17 20 -15 -30z"/>
<path d="M7461 3104 c0 -67 4 -110 8 -99 4 11 6 50 5 88 -2 39 0 66 6 62 9 -5
-4 53 -15 63 -3 3 -5 -48 -4 -114z"/>
<path d="M7462 2901 c1 -17 5 -31 9 -31 4 0 5 12 3 27 -7 39 -13 41 -12 4z"/>
<path d="M7460 2840 c0 -5 5 -10 10 -10 6 0 10 5 10 10 0 6 -4 10 -10 10 -5 0
-10 -4 -10 -10z"/>
<path d="M7463 2759 c-1 -27 2 -49 5 -49 10 0 14 87 5 93 -5 3 -9 -17 -10 -44z"/>
<path d="M7460 2666 c0 -9 5 -16 10 -16 6 0 10 4 10 9 0 6 -4 13 -10 16 -5 3
-10 -1 -10 -9z"/>
<path d="M7450 2636 c0 -2 7 -6 15 -10 8 -3 15 -1 15 4 0 6 -7 10 -15 10 -8 0
-15 -2 -15 -4z"/>
<path d="M7454 2602 c8 -13 11 -176 4 -187 -4 -6 -3 -17 3 -25 11 -19 11 -17
14 118 2 82 -1 102 -12 102 -8 0 -12 -4 -9 -8z"/>
<path d="M7471 2366 c-10 -12 -14 -55 -10 -116 1 -8 -2 -23 -6 -32 -5 -14 -2
-18 11 -18 15 0 16 2 5 9 -9 6 -10 10 -2 16 7 3 9 15 6 26 -4 12 -2 19 7 19
10 0 9 3 -2 10 -13 9 -13 11 0 20 8 5 10 10 5 10 -13 0 -14 39 -2 58 11 16 2
15 -12 -2z"/>
<path d="M7456 2127 c2 -68 14 -108 14 -49 0 17 5 34 10 37 6 3 10 12 10 18 0
7 -4 6 -11 -3 -9 -12 -10 -11 -6 8 3 12 1 22 -3 22 -5 0 -10 8 -13 18 -2 9 -3
-14 -1 -51z"/>
<path d="M7455 2020 c-3 -5 1 -10 10 -10 9 0 13 5 10 10 -3 6 -8 10 -10 10 -2
0 -7 -4 -10 -10z"/>
<path d="M7458 1943 c5 -81 17 -85 18 -7 0 38 -4 64 -10 64 -7 0 -10 -22 -8
-57z"/>
<path d="M7461 1843 c0 -11 3 -13 6 -5 2 6 10 9 15 6 7 -4 8 -2 4 4 -11 18
-26 14 -25 -5z"/>
<path d="M2852 3782 c-10 -30 8 -59 29 -46 8 4 7 9 -2 15 -9 5 -10 9 -2 9 6 0
9 9 6 20 -8 32 -20 33 -31 2z"/>
<path d="M7459 9983 c-1 -10 0 -56 1 -103 2 -47 3 -135 4 -196 1 -98 3 -110
19 -111 14 -2 16 3 11 19 -11 34 -12 73 -4 83 11 14 8 205 -4 205 -5 0 -3 6 3
14 7 9 8 17 2 20 -5 3 -7 24 -4 46 5 33 3 40 -11 40 -9 0 -17 -8 -17 -17z"/>
<path d="M3930 9670 c0 -5 5 -10 11 -10 5 0 7 5 4 10 -3 6 -8 10 -11 10 -2 0
-4 -4 -4 -10z"/>
<path d="M3927 9619 c7 -7 15 -10 18 -7 3 3 -2 9 -12 12 -14 6 -15 5 -6 -5z"/>
<path d="M7469 9547 c-1 -9 -2 -23 -3 -29 -1 -7 2 -16 7 -19 4 -3 4 -17 -2
-30 -5 -14 -7 -47 -5 -74 4 -55 4 -50 1 -135 -1 -40 2 -60 10 -60 13 0 13 57
0 78 -5 6 -5 17 -1 24 13 20 13 99 0 91 -8 -5 -8 -3 0 8 11 14 11 145 0 156
-3 4 -7 -1 -7 -10z"/>
<path d="M3930 9521 c0 -8 -8 -11 -20 -8 -18 5 -20 2 -14 -16 4 -12 7 -27 7
-34 0 -6 6 -9 14 -6 10 4 11 9 2 19 -9 12 -8 18 7 28 10 8 16 18 11 22 -4 4
-7 2 -7 -5z"/>
<path d="M3916 9427 c3 -10 9 -15 12 -12 3 3 0 11 -7 18 -10 9 -11 8 -5 -6z"/>
<path d="M3931 9389 c-7 -12 -10 -23 -8 -26 3 -3 11 5 17 17 15 28 8 35 -9 9z"/>
<path d="M3938 9356 c-23 -17 -23 -24 -1 -28 15 -3 15 -6 -6 -25 -15 -14 -19
-23 -11 -28 13 -8 12 -9 28 28 7 16 9 33 6 39 -4 6 0 14 7 19 8 5 10 9 4 9 -5
-1 -18 -7 -27 -14z"/>
<path d="M3890 9340 c0 -5 5 -10 10 -10 6 0 10 5 10 10 0 6 -4 10 -10 10 -5 0
-10 -4 -10 -10z"/>
<path d="M3920 9250 c0 -5 5 -10 10 -10 6 0 10 5 10 10 0 6 -4 10 -10 10 -5 0
-10 -4 -10 -10z"/>
<path d="M3935 9180 c4 -11 2 -20 -4 -20 -6 0 -11 -4 -11 -10 0 -5 7 -7 15 -4
17 7 21 54 4 54 -6 0 -8 -9 -4 -20z"/>
<path d="M3901 9176 c-9 -11 -9 -16 1 -22 7 -4 10 -4 6 1 -4 4 -3 14 3 22 6 7
9 13 6 13 -2 0 -10 -6 -16 -14z"/>
<path d="M7466 9143 c1 -16 3 -31 3 -34 1 -3 8 -6 15 -6 11 0 12 5 5 18 -5 10
-8 23 -7 30 2 6 -2 13 -7 15 -6 3 -10 -8 -9 -23z"/>
<path d="M3935 9110 c-3 -5 -1 -10 4 -10 6 0 11 5 11 10 0 6 -2 10 -4 10 -3 0
-8 -4 -11 -10z"/>
<path d="M7467 9083 c9 -3 10 -10 4 -21 -9 -18 -4 -72 8 -72 3 0 7 23 8 50 2
42 -1 50 -15 49 -10 0 -12 -3 -5 -6z"/>
<path d="M3915 9059 c-4 -6 -5 -12 -2 -15 2 -3 7 2 10 11 7 17 1 20 -8 4z"/>
<path d="M3941 9044 c0 -11 3 -14 6 -6 3 7 2 16 -1 19 -3 4 -6 -2 -5 -13z"/>
<path d="M3917 9023 c-4 -3 -7 -11 -7 -17 0 -6 5 -5 12 2 6 6 9 14 7 17 -3 3
-9 2 -12 -2z"/>
<path d="M3947 9006 c-4 -10 -5 -21 -2 -24 9 -9 17 6 13 25 -3 17 -4 17 -11
-1z"/>
<path d="M7464 8910 c0 -42 3 -60 12 -60 18 0 27 17 12 23 -10 4 -9 8 2 16 10
7 11 11 3 11 -7 0 -13 5 -13 11 0 5 5 7 10 4 11 -7 12 0 4 33 -12 44 -29 23
-30 -38z"/>
<path d="M3930 8945 c-7 -9 -11 -18 -8 -20 3 -3 11 1 18 10 7 9 11 18 8 20 -3
3 -11 -1 -18 -10z"/>
<path d="M2809 3246 c-2 -2 -22 -6 -45 -8 -44 -5 -67 -15 -60 -26 3 -6 391 -8
446 -3 8 1 1 8 -15 15 -28 12 -316 32 -326 22z"/>
<path d="M3972 3245 c4 -4 20 -8 35 -10 15 -1 44 -5 63 -8 19 -4 58 -9 85 -12
125 -13 280 -38 525 -86 117 -23 116 -23 100 -8 -8 8 -31 16 -50 17 -19 2 -37
8 -41 13 -4 6 -53 19 -110 29 -57 10 -113 20 -124 23 -49 12 -178 28 -265 32
-52 3 -124 8 -160 11 -36 3 -62 3 -58 -1z"/>
<path d="M4960 3038 c-34 -8 -150 -26 -220 -34 -39 -4 -240 -51 -280 -65 -14
-5 -37 -10 -52 -13 -14 -2 -36 -9 -47 -15 -27 -15 -199 -71 -217 -71 -8 0 -14
-6 -14 -14 0 -14 6 -13 165 29 33 8 69 17 80 20 11 3 31 9 45 14 51 20 233 62
330 77 19 3 65 14 101 25 36 11 88 22 115 24 148 12 205 19 209 24 6 10 -174
8 -215 -1z"/>
<path d="M5250 3040 c24 -7 111 -3 119 6 2 2 -29 3 -70 2 -47 -1 -65 -3 -49
-8z"/>
<path d="M5398 3033 c6 -2 18 -2 25 0 6 3 1 5 -13 5 -14 0 -19 -2 -12 -5z"/>
<path d="M1240 2501 c0 -6 4 -13 10 -16 6 -3 7 1 4 9 -7 18 -14 21 -14 7z"/>
<path d="M970 2390 c0 -5 5 -10 11 -10 5 0 7 5 4 10 -3 6 -8 10 -11 10 -2 0
-4 -4 -4 -10z"/>
<path d="M5777 1853 c-4 -3 -7 -11 -7 -17 0 -6 5 -5 12 2 6 6 9 14 7 17 -3 3
-9 2 -12 -2z"/>
<path d="M1371 1184 c0 -11 3 -14 6 -6 3 7 2 16 -1 19 -3 4 -6 -2 -5 -13z"/>
<path d="M1498 1153 c7 -3 16 -2 19 1 4 3 -2 6 -13 5 -11 0 -14 -3 -6 -6z"/>
<path d="M4395 1141 c3 -5 -8 -24 -23 -41 -29 -31 -102 -167 -102 -188 0 -7
-4 -12 -9 -12 -5 0 -11 -10 -15 -23 -3 -13 -27 -68 -53 -123 -25 -54 -45 -101
-44 -103 2 -2 -1 -7 -7 -10 -13 -9 -42 -100 -42 -133 0 -26 2 -28 15 -14 8 8
15 18 15 23 1 4 9 26 20 48 11 22 19 46 20 54 0 15 71 163 81 171 10 7 95 180
104 210 4 14 15 36 25 50 9 14 22 39 28 57 8 25 8 33 -4 37 -8 3 -12 2 -9 -3z"/>
<path d="M1344 1126 c11 -9 23 -21 27 -27 4 -6 9 -7 12 -2 3 5 -8 17 -26 27
-24 13 -27 13 -13 2z"/>
<path d="M1268 1075 c-3 -11 -9 -29 -13 -40 -3 -11 1 -7 10 8 9 16 15 33 12
40 -2 6 -6 3 -9 -8z"/>
<path d="M1410 1066 c0 -2 7 -9 15 -16 9 -7 15 -8 15 -2 0 5 -7 12 -15 16 -8
3 -15 4 -15 2z"/>
<path d="M1200 1050 c0 -5 5 -10 11 -10 5 0 7 5 4 10 -3 6 -8 10 -11 10 -2 0
-4 -4 -4 -10z"/>
<path d="M1731 994 c0 -11 3 -14 6 -6 3 7 2 16 -1 19 -3 4 -6 -2 -5 -13z"/>
<path d="M1318 993 c7 -3 16 -2 19 1 4 3 -2 6 -13 5 -11 0 -14 -3 -6 -6z"/>
<path d="M1179 977 c5 -5 19 -7 32 -5 20 3 19 5 -9 9 -20 3 -29 2 -23 -4z"/>
<path d="M1253 974 c-3 -8 -1 -20 4 -25 5 -5 9 1 9 16 0 29 -4 32 -13 9z"/>
<path d="M1335 970 c3 -5 8 -10 11 -10 2 0 4 5 4 10 0 6 -5 10 -11 10 -5 0 -7
-4 -4 -10z"/>
<path d="M1405 939 c-4 -6 -5 -12 -2 -15 2 -3 7 2 10 11 7 17 1 20 -8 4z"/>
<path d="M1191 904 c0 -11 3 -14 6 -6 3 7 2 16 -1 19 -3 4 -6 -2 -5 -13z"/>
<path d="M1295 870 c-4 -6 -11 -8 -16 -5 -5 4 -9 1 -9 -4 0 -15 11 -13 34 4
11 8 15 15 9 15 -7 0 -15 -5 -18 -10z"/>
<path d="M1403 843 c0 -16 2 -22 4 -15 3 6 9 9 15 6 6 -4 5 2 -1 15 -15 28
-19 27 -18 -6z"/>
<path d="M1217 818 c9 -21 21 -38 25 -38 5 0 6 6 1 13 -4 6 -7 21 -6 32 2 11
0 14 -3 7 -5 -10 -9 -9 -20 5 -10 12 -9 6 3 -19z"/>
<path d="M1360 830 c0 -11 2 -20 4 -20 2 0 6 9 9 20 3 11 1 20 -4 20 -5 0 -9
-9 -9 -20z"/>
<path d="M1381 813 c0 -12 -4 -30 -7 -40 -5 -14 -4 -15 5 -7 7 6 11 24 8 40
-3 21 -4 23 -6 7z"/>
<path d="M1400 794 c0 -2 9 -8 20 -14 11 -6 20 -7 20 -2 0 6 -9 12 -20 15 -11
3 -20 3 -20 1z"/>
<path d="M4811 780 c-6 -14 -18 -36 -26 -50 -8 -14 -15 -33 -15 -42 0 -10 -4
-18 -9 -18 -5 0 -14 -21 -20 -46 -7 -25 -18 -56 -27 -69 -8 -12 -16 -32 -19
-43 -2 -11 -21 -58 -43 -104 -38 -81 -92 -238 -93 -268 0 -8 -10 -40 -23 -70
-25 -56 -25 -70 -1 -70 7 0 21 25 31 58 27 87 94 272 115 318 10 22 19 46 19
52 0 16 48 137 76 192 33 65 56 138 51 163 -3 22 -4 22 -16 -3z"/>
<path d="M1270 734 c5 -19 12 -39 16 -42 4 -4 4 5 0 21 -5 21 -3 27 11 27 15
0 15 2 -3 15 -29 22 -33 18 -24 -21z"/>
<path d="M1411 746 c-9 -11 -9 -16 0 -22 7 -4 9 -3 5 4 -3 5 0 12 6 15 7 2 10
7 7 11 -3 4 -12 0 -18 -8z"/>
<path d="M1361 698 c-1 -10 -8 -18 -17 -18 -8 0 -12 -5 -8 -11 9 -15 38 15 31
33 -4 9 -6 7 -6 -4z"/>
<path d="M1860 661 c0 -6 4 -13 10 -16 6 -3 7 1 4 9 -7 18 -14 21 -14 7z"/>
<path d="M3817 663 c-18 -30 -47 -341 -47 -498 0 -113 8 -165 26 -165 11 0 14
38 15 203 1 111 2 213 4 227 7 69 15 240 11 240 -3 0 -7 -3 -9 -7z"/>
<path d="M6066 600 c3 -41 6 -81 7 -87 0 -7 4 -13 9 -13 5 0 7 -4 4 -9 -8 -13
5 -101 15 -101 5 0 7 12 4 28 -2 15 -9 68 -15 117 -16 121 -32 163 -24 65z"/>
<path d="M1275 640 c-16 -7 -17 -9 -3 -9 9 -1 20 4 23 9 7 11 7 11 -20 0z"/>
<path d="M1357 630 c-3 -11 -1 -18 3 -15 5 3 10 -1 13 -7 2 -7 4 -1 3 14 -1
33 -11 37 -19 8z"/>
<path d="M1390 631 c0 -25 6 -27 13 -6 4 8 2 17 -3 20 -6 4 -10 -3 -10 -14z"/>
<path d="M1446 624 c-11 -8 -16 -14 -10 -14 13 0 39 18 34 24 -3 2 -14 -2 -24
-10z"/>
<path d="M1500 619 c0 -5 5 -7 10 -4 6 3 10 8 10 11 0 2 -4 4 -10 4 -5 0 -10
-5 -10 -11z"/>
<path d="M1403 585 c0 -6 6 -12 12 -12 6 0 12 6 12 12 0 6 -6 12 -12 12 -6 0
-12 -6 -12 -12z"/>
<path d="M1580 581 c0 -6 4 -13 10 -16 6 -3 7 1 4 9 -7 18 -14 21 -14 7z"/>
<path d="M1526 565 c-9 -26 -7 -32 5 -12 6 10 9 21 6 23 -2 3 -7 -2 -11 -11z"/>
<path d="M1761 534 c0 -11 3 -14 6 -6 3 7 2 16 -1 19 -3 4 -6 -2 -5 -13z"/>
<path d="M1425 500 c-19 -8 -19 -9 3 -9 12 -1 22 4 22 9 0 6 -1 10 -2 9 -2 0
-12 -4 -23 -9z"/>
<path d="M1575 490 c3 -5 11 -10 16 -10 6 0 7 5 4 10 -3 6 -11 10 -16 10 -6 0
-7 -4 -4 -10z"/>
<path d="M1640 481 c0 -11 4 -22 9 -25 4 -3 6 6 3 19 -5 30 -12 33 -12 6z"/>
<path d="M1397 479 c7 -9 10 -18 7 -22 -3 -3 4 -3 15 0 12 3 24 9 27 14 3 5
-2 6 -11 3 -8 -4 -23 0 -33 7 -15 12 -16 12 -5 -2z"/>
<path d="M1490 470 c8 -5 22 -9 30 -9 10 0 8 3 -5 9 -27 12 -43 12 -25 0z"/>
<path d="M3371 462 c-1 -7 -5 -11 -11 -7 -5 3 -5 -7 2 -25 5 -17 8 -33 5 -36
-4 -4 19 -98 55 -226 5 -20 17 -39 25 -43 22 -8 26 0 14 23 -6 12 -11 31 -11
43 0 12 -4 36 -9 53 -5 17 -15 51 -21 76 -7 25 -16 54 -20 65 -4 11 -12 36
-18 55 -5 19 -10 29 -11 22z"/>
<path d="M1461 408 c-1 -20 14 -24 25 -6 4 6 3 8 -4 4 -5 -3 -13 0 -15 6 -3 8
-6 6 -6 -4z"/>
<path d="M1497 397 c-3 -8 1 -14 8 -14 7 0 11 6 8 14 -3 7 -6 13 -8 13 -2 0
-5 -6 -8 -13z"/>
<path d="M1708 403 c7 -3 16 -2 19 1 4 3 -2 6 -13 5 -11 0 -14 -3 -6 -6z"/>
<path d="M1870 386 c0 -2 8 -10 18 -17 15 -13 16 -12 3 4 -13 16 -21 21 -21
13z"/>
<path d="M1990 370 c-9 -6 -10 -10 -3 -10 6 0 15 5 18 10 8 12 4 12 -15 0z"/>
<path d="M7461 361 c-10 -6 -11 -13 -2 -29 7 -14 8 -29 2 -45 -6 -14 -8 -27
-5 -30 2 -2 5 -21 6 -40 1 -30 4 -35 15 -25 11 9 12 13 1 20 -10 6 -10 10 2
18 8 5 10 10 5 10 -12 0 -13 99 -2 118 9 14 -2 16 -22 3z"/>
<path d="M1557 297 c-23 -23 -19 -27 10 -12 12 6 19 16 15 21 -4 6 -14 3 -25
-9z"/>
<path d="M1567 265 c-4 -8 -3 -16 1 -19 4 -3 9 4 9 15 2 23 -3 25 -10 4z"/>
<path d="M1808 243 c7 -3 16 -2 19 1 4 3 -2 6 -13 5 -11 0 -14 -3 -6 -6z"/>
<path d="M1735 190 c-3 -5 -1 -10 4 -10 6 0 11 5 11 10 0 6 -2 10 -4 10 -3 0
-8 -4 -11 -10z"/>
<path d="M1590 181 c0 -6 4 -13 10 -16 6 -3 7 1 4 9 -7 18 -14 21 -14 7z"/>
<path d="M2111 174 c0 -11 3 -14 6 -6 3 7 2 16 -1 19 -3 4 -6 -2 -5 -13z"/>
<path d="M7460 152 c0 -10 7 -19 14 -19 11 0 13 5 5 19 -5 10 -12 18 -14 18
-3 0 -5 -8 -5 -18z"/>
<path d="M1995 111 c-6 -11 13 -26 22 -17 4 3 0 6 -8 7 -8 0 -6 4 6 9 16 7 17
9 3 9 -9 1 -19 -3 -23 -8z"/>
<path d="M1788 103 c7 -3 16 -2 19 1 4 3 -2 6 -13 5 -11 0 -14 -3 -6 -6z"/>
<path d="M7458 93 c7 -3 16 -2 19 1 4 3 -2 6 -13 5 -11 0 -14 -3 -6 -6z"/>
<path d="M7460 64 c0 -8 5 -12 10 -9 6 3 10 10 10 16 0 5 -4 9 -10 9 -5 0 -10
-7 -10 -16z"/>
<path d="M1497 45 c3 -8 9 -12 14 -9 12 7 11 11 -5 17 -10 4 -13 1 -9 -8z"/>
<path d="M1870 51 c0 -6 4 -13 10 -16 6 -3 7 1 4 9 -7 18 -14 21 -14 7z"/>
<path d="M1560 40 c-8 -5 -11 -12 -7 -16 4 -4 13 -2 19 4 15 15 7 24 -12 12z"/>
<path d="M7473 43 c-7 -2 -13 -14 -13 -24 0 -25 16 -17 23 11 3 11 4 20 4 19
-1 0 -8 -3 -14 -6z"/>
<path d="M1760 26 c0 -8 4 -17 9 -20 5 -4 7 3 4 14 -6 23 -13 26 -13 6z"/>
</g>
</svg>
